<svg id="Layer_1" data-name="Layer 1" xmlns="http://www.w3.org/2000/svg" viewBox="0 0 890 189"><defs><style>.cls-1,.cls-2{fill:#231f20;}.cls-2{stroke:#231f20;stroke-miterlimit:10;}</style></defs><title>apcc_logo2</title><path class="cls-1" d="M500.87,33.93c7.41,0,17.14,3.12,21,10a11.17,11.17,0,1,0,19.47-11C532.47,17.18,514,11.59,500.87,11.59a46.77,46.77,0,0,0-30,11c-7.92,6.84-17.36,20.17-17.36,44.83s9.44,38,17.36,44.84a46.83,46.83,0,0,0,30,11c13.12,0,31.6-5.59,40.46-21.35a11.17,11.17,0,0,0-19.47-11c-3.85,6.84-13.58,10-21,10s-25-3.26-25-33.51S493.34,33.93,500.87,33.93Z"/><path class="cls-1" d="M636.46,86.74A11.17,11.17,0,0,0,621.24,91c-3.85,6.84-13.58,10-21,10s-25-3.26-25-33.51,17.51-33.51,25-33.51,17.14,3.12,21,10a11.17,11.17,0,1,0,19.48-11c-8.87-15.75-27.34-21.34-40.47-21.34a46.79,46.79,0,0,0-30,11c-7.92,6.84-17.36,20.17-17.36,44.83s9.44,38,17.36,44.84a46.85,46.85,0,0,0,30,11c13.13,0,31.6-5.59,40.47-21.35A11.18,11.18,0,0,0,636.46,86.74Z"/><path class="cls-1" d="M309.88,18.13a11.17,11.17,0,0,0-20.33,0L248.89,107.5a11.16,11.16,0,0,0,5.54,14.79,11,11,0,0,0,4.62,1,11.16,11.16,0,0,0,10.17-6.55l9.22-20.25H321l9.22,20.25a11.17,11.17,0,1,0,20.33-9.25Zm-21.28,56,11.11-24.43,11.12,24.43Z"/><path class="cls-1" d="M407.57,11.82H377A11.17,11.17,0,0,0,365.87,23v91a11.17,11.17,0,1,0,22.34,0V85.17l19.36-.11a36.62,36.62,0,1,0,0-73.24Zm-.06,50.9-19.3.11V34.17h19.36a14.28,14.28,0,1,1-.06,28.55Z"/><path class="cls-2" d="M25.08,178.75c-.25.76-.76,1.64-1.77,1.64s-2.75-.88-2.75-2.2a4.18,4.18,0,0,1,.22-1.16l7.56-23c.91-2.8,2.59-3.4,4.26-3.4,1.27,0,3.32.18,4.37,3.4l7.55,23a3,3,0,0,1,.19,1.05c0,1.65-1.83,2.31-2.78,2.31-1.11,0-1.58-1.3-1.71-1.64L38.33,173H27Zm3.29-10.05H36.9l-3.51-10.63c-.28-.84-.53-.91-.75-.91s-.48.07-.76.91Z"/><path class="cls-2" d="M62.24,161.36a5.85,5.85,0,0,1,.85,2.69c0,1.29-1.1,1.82-2.18,1.82-1.48,0-1.83-.74-2-1.33-.47-1.92-1.39-2.62-3.86-2.62-.72,0-3.47,0-3.47,2.23,0,1.68,1.32,2,5.21,3,3.42.8,6.89,1.82,6.89,6.3s-3,7-8.31,7c-3.38,0-5.5-1-6.89-2.48a6.31,6.31,0,0,1-1.77-4,2,2,0,0,1,2.15-2c1.52,0,1.77.74,2.21,2.07.57,1.68,1.77,2.41,4.39,2.41.86,0,3.83,0,3.83-2.44,0-1.58-.44-1.72-5.25-2.91-4-1-6.79-2.31-6.79-6.37,0-3.63,2.46-6.64,7.8-6.64C58.1,158.07,60.69,158.77,62.24,161.36Z"/><path class="cls-2" d="M72.37,153.42a2.54,2.54,0,1,1-2.53-2.81A2.68,2.68,0,0,1,72.37,153.42ZM72,178.08c0,1.4-.57,2.31-2.09,2.31s-2.27-.56-2.27-2.31V160.34a2,2,0,0,1,2.11-2.27c1.27,0,2.25.45,2.25,2.27Z"/><path class="cls-2" d="M92.41,175.91a7.87,7.87,0,0,0,.16,1.44c0,.2.25,1.15.25,1.32,0,1.44-1.45,1.72-2.24,1.72-1.77,0-2.15-.88-2.47-2.84a6.94,6.94,0,0,1-6,2.84c-4,0-6.13-2.87-6.13-6.48,0-5.35,4.45-6.08,7.43-6.57,4.14-.7,4.67-.77,4.67-2.66,0-2.55-2.59-2.73-3.41-2.73a3.45,3.45,0,0,0-3.48,2c-.57,1.33-.88,2.07-2.37,2.07-.38,0-2.18-.07-2.18-1.89s1.61-6.05,8.12-6.05c1.52,0,5,.28,6.64,2.87a7.52,7.52,0,0,1,1,4Zm-4.36-6.33c-1,.56-1.3.59-3.51,1-2.4.42-4,1.22-4,3.4a2.62,2.62,0,0,0,2.72,2.83,4.81,4.81,0,0,0,4.8-4.62Z"/><path class="cls-2" d="M113.61,178.08c0,1.4-.61,2.31-2.12,2.31-1.36,0-2.25-.56-2.25-2.31V166.64c0-.74,0-4.44-3.22-4.44-2.59,0-4.08,2.51-4.08,4.82v11.06a2,2,0,0,1-2.09,2.31c-1.35,0-2.27-.52-2.27-2.31V160.34a2,2,0,0,1,2.12-2.27c1.36,0,2.24.52,2.24,2.27V161a7.24,7.24,0,0,1,5.53-2.94c1.33,0,6.14.49,6.14,7.69Z"/><path class="cls-2" d="M125.12,166.88c1.21,0,2.06.6,2.06,2.31,0,1.4-.51,2.34-2.06,2.34h-5.69c-1.2,0-2.05-.59-2.05-2.27,0-1.4.51-2.38,2.05-2.38Z"/><path class="cls-2" d="M135.59,178c0,1.26-.5,2.42-2.27,2.42-1.61,0-2.31-.88-2.31-2.42V156.18c0-3.6,1.33-4.83,4.36-4.83h5.91c3.45,0,4.68.81,5.22,1.15a8.7,8.7,0,0,1,3.79,7.67,9.14,9.14,0,0,1-3.63,7.76c-1.87,1.26-4.87,1.26-5.38,1.26h-5.69Zm0-13.19H141c3.51,0,4.65-2.23,4.65-4.54,0-1.93-.89-4.48-4.65-4.48h-4.08c-.88,0-1.3.56-1.3,1.43Z"/><path class="cls-2" d="M169.72,175.91a7.87,7.87,0,0,0,.16,1.44c0,.2.25,1.15.25,1.32,0,1.44-1.46,1.72-2.25,1.72-1.77,0-2.15-.88-2.46-2.84a7,7,0,0,1-6,2.84c-4,0-6.13-2.87-6.13-6.48,0-5.35,4.46-6.08,7.43-6.57,4.14-.7,4.68-.77,4.68-2.66,0-2.55-2.59-2.73-3.42-2.73a3.43,3.43,0,0,0-3.47,2c-.57,1.33-.89,2.07-2.37,2.07-.38,0-2.18-.07-2.18-1.89s1.61-6.05,8.12-6.05c1.52,0,5,.28,6.64,2.87a7.61,7.61,0,0,1,1,4Zm-4.36-6.33a9.38,9.38,0,0,1-3.51,1c-2.41.42-4,1.22-4,3.4a2.62,2.62,0,0,0,2.72,2.83,4.81,4.81,0,0,0,4.81-4.62Z"/><path class="cls-2" d="M190.69,165.13a2,2,0,0,1-2.21,1.93c-1.52,0-1.74-.77-2.06-1.82a4,4,0,0,0-3.92-3c-4.14,0-4.74,4.33-4.74,7,0,2.17.44,7.07,4.74,7.07,1.27,0,3-.25,3.95-3.11.41-1.3.67-2.1,2.22-2.1a1.91,1.91,0,0,1,2.11,1.92,8,8,0,0,1-8.34,7.42c-7.18,0-9.2-6.16-9.2-11.16,0-6.51,3.26-11.16,9.07-11.16C188.76,158.07,190.69,163.38,190.69,165.13Z"/><path class="cls-2" d="M199.49,153.42a2.54,2.54,0,1,1-2.53-2.81A2.68,2.68,0,0,1,199.49,153.42Zm-.35,24.66c0,1.4-.57,2.31-2.09,2.31s-2.27-.56-2.27-2.31V160.34a2,2,0,0,1,2.12-2.27c1.26,0,2.24.45,2.24,2.27Z"/><path class="cls-2" d="M206.8,156.74c0-5.57,4.33-6.13,6.1-6.13a1.9,1.9,0,0,1,2.21,1.89,1.76,1.76,0,0,1-1.36,1.9c-1.52.31-2.59.48-2.59,2.23v2.17h2.18c.73,0,1.77.28,1.77,1.89,0,1.44-.79,1.89-1.77,1.89h-2.18v15.5a2,2,0,0,1-2.09,2.31c-1.29,0-2.27-.49-2.27-2.31v-15.5h-2.15a1.63,1.63,0,0,1-1.81-1.85c0-1.51.86-1.93,1.81-1.93h2.15Z"/><path class="cls-2" d="M223.49,153.42a2.54,2.54,0,1,1-2.52-2.81A2.67,2.67,0,0,1,223.49,153.42Zm-.34,24.66c0,1.4-.57,2.31-2.09,2.31s-2.28-.56-2.28-2.31V160.34a2,2,0,0,1,2.12-2.27c1.27,0,2.25.45,2.25,2.27Z"/><path class="cls-2" d="M244.58,165.13a2,2,0,0,1-2.21,1.93c-1.52,0-1.74-.77-2.05-1.82a4,4,0,0,0-3.92-3c-4.14,0-4.74,4.33-4.74,7,0,2.17.44,7.07,4.74,7.07,1.26,0,3-.25,3.95-3.11.41-1.3.66-2.1,2.21-2.1a1.92,1.92,0,0,1,2.12,1.92,8,8,0,0,1-8.35,7.42c-7.17,0-9.19-6.16-9.19-11.16,0-6.51,3.25-11.16,9.07-11.16C242.66,158.07,244.58,163.38,244.58,165.13Z"/><path class="cls-2" d="M280.83,159.15a2.1,2.1,0,0,1-2.28,2.21c-1.61,0-1.83-.81-2.21-2.1a5.28,5.28,0,0,0-1.45-2.63,7,7,0,0,0-4.56-1.57c-6.54,0-7.36,7.52-7.36,10.6,0,3.92,1.23,10.25,7.21,10.25,5.05,0,5.91-3.57,6.26-5,.25-1.12.5-2.06,2.27-2.06a2,2,0,0,1,2.21,2.16c0,2.52-2.34,9.42-10.62,9.42-8.12,0-12-6.76-12-14.77,0-9.41,5-15,12-15C278,150.61,280.83,156.56,280.83,159.15Z"/><path class="cls-2" d="M301.61,178.08c0,1.4-.6,2.31-2.11,2.31s-2.25-.56-2.25-2.31V166.64c0-.74,0-4.44-3.22-4.44-2.59,0-4.08,2.51-4.08,4.82v11.06a2,2,0,0,1-2.09,2.31c-1.36,0-2.27-.52-2.27-2.31V152.89a2,2,0,0,1,2.12-2.28c1.35,0,2.24.49,2.24,2.28V161a7.24,7.24,0,0,1,5.53-2.94c1.33,0,6.13.49,6.13,7.69Z"/><path class="cls-2" d="M311.93,153.42a2.54,2.54,0,1,1-2.53-2.81A2.67,2.67,0,0,1,311.93,153.42Zm-.35,24.66c0,1.4-.56,2.31-2.08,2.31s-2.28-.56-2.28-2.31V160.34a2,2,0,0,1,2.12-2.27c1.26,0,2.24.45,2.24,2.27Z"/><path class="cls-2" d="M321.55,178.08a2,2,0,0,1-2.09,2.31c-1.36,0-2.27-.52-2.27-2.31V152.89a2,2,0,0,1,2.11-2.28c1.36,0,2.25.49,2.25,2.28Z"/><path class="cls-2" d="M339.41,152.89c0-2.21,1.55-2.28,2.12-2.28,1.33,0,2.25.49,2.25,2.28v25.19c0,1-.26,2.31-2.15,2.31-.57,0-2.22,0-2.22-2.31v-1a6.42,6.42,0,0,1-5.65,3.29c-5.28,0-8.22-5.22-8.22-11.23,0-6.27,2.91-11.09,8.09-11.09a6.72,6.72,0,0,1,5.78,3Zm-9.35,16.34c0,.87,0,7,4.68,7s4.67-6.13,4.67-7,0-7-4.67-7S330.06,168.28,330.06,169.23Z"/><path class="cls-2" d="M353.81,178.08a2,2,0,0,1-2.09,2.31c-1.35,0-2.27-.52-2.27-2.31V160.34a2,2,0,0,1,2.12-2.27c1.32,0,2.24.49,2.24,2.27v1.37c1.45-2,3.48-3.64,5.94-3.64a2.27,2.27,0,0,1,2.18,2.48c0,2.34-1.8,2.52-2.9,2.62-4.43.42-5.22,3.61-5.22,4.8Z"/><path class="cls-2" d="M369.41,170.52c.15,4.09,2.4,5.81,4.61,5.81a3.8,3.8,0,0,0,3.67-2.48c.44-1,.79-1.76,2.15-1.76a2,2,0,0,1,2.24,2,7.94,7.94,0,0,1-8.12,6.3c-6.32,0-9.17-5.36-9.17-11.2,0-6.33,3.16-11.12,8.82-11.12,6.58,0,8.72,6.43,8.72,9.58,0,2.87-2.56,2.87-3.25,2.87Zm7.2-3.57c.45,0,1-.1,1-.84,0-1.36-1.45-4-3.95-4-2.27,0-3.63,1.82-4.17,4.86Z"/><path class="cls-2" d="M402.39,178.08c0,1.4-.6,2.31-2.12,2.31-1.36,0-2.25-.56-2.25-2.31V166.64c0-.74,0-4.44-3.22-4.44-2.59,0-4.08,2.51-4.08,4.82v11.06a2,2,0,0,1-2.08,2.31c-1.36,0-2.28-.52-2.28-2.31V160.34a2,2,0,0,1,2.12-2.27c1.36,0,2.24.52,2.24,2.27V161a7.26,7.26,0,0,1,5.53-2.94c1.33,0,6.14.49,6.14,7.69Z"/><path class="cls-2" d="M409.86,160.62a1.16,1.16,0,0,1-1.14,1.23c-.35,0-1-.18-1.14-1.23l-.66-8.12a1.66,1.66,0,0,1,1.77-1.89,1.68,1.68,0,0,1,1.83,1.89Z"/><path class="cls-2" d="M428.93,161.36a5.85,5.85,0,0,1,.85,2.69c0,1.29-1.11,1.82-2.18,1.82-1.49,0-1.83-.74-2-1.33-.48-1.92-1.39-2.62-3.86-2.62-.73,0-3.48,0-3.48,2.23,0,1.68,1.33,2,5.22,3,3.41.8,6.89,1.82,6.89,6.3s-3,7-8.31,7c-3.38,0-5.5-1-6.89-2.48a6.25,6.25,0,0,1-1.77-4,2,2,0,0,1,2.15-2c1.51,0,1.77.74,2.21,2.07.57,1.68,1.77,2.41,4.39,2.41.86,0,3.83,0,3.83-2.44,0-1.58-.45-1.72-5.25-2.91-4-1-6.8-2.31-6.8-6.37,0-3.63,2.47-6.64,7.81-6.64C424.79,158.07,427.38,158.77,428.93,161.36Z"/><path class="cls-2" d="M466.5,159.15a2.1,2.1,0,0,1-2.28,2.21c-1.61,0-1.83-.81-2.21-2.1a5.22,5.22,0,0,0-1.46-2.63,6.91,6.91,0,0,0-4.55-1.57c-6.54,0-7.36,7.52-7.36,10.6,0,3.92,1.23,10.25,7.2,10.25,5.06,0,5.92-3.57,6.26-5,.26-1.12.51-2.06,2.28-2.06a2,2,0,0,1,2.21,2.16c0,2.52-2.34,9.42-10.62,9.42-8.12,0-12-6.76-12-14.77,0-9.41,5-15,12-15C463.62,150.61,466.5,156.56,466.5,159.15Z"/><path class="cls-2" d="M488.33,169.23c0,5.77-3,11.16-9.36,11.16s-9.36-5.39-9.36-11.16,2.91-11.16,9.36-11.16S488.33,163.52,488.33,169.23Zm-14.2,0c0,2.9,1.2,7,4.84,7s4.87-4.1,4.87-7-1.14-7-4.87-7S474.13,166.53,474.13,169.23Z"/><path class="cls-2" d="M508.38,178.08c0,1.4-.6,2.31-2.12,2.31-1.36,0-2.24-.56-2.24-2.31V166.64c0-.74,0-4.44-3.23-4.44-2.59,0-4.07,2.51-4.07,4.82v11.06a2,2,0,0,1-2.09,2.31c-1.36,0-2.28-.52-2.28-2.31V160.34a2,2,0,0,1,2.12-2.27c1.36,0,2.25.52,2.25,2.27V161a7.24,7.24,0,0,1,5.53-2.94c1.32,0,6.13.49,6.13,7.69Z"/><path class="cls-2" d="M520.69,173.74c.1.31.22.49.47.49s.41-.24.48-.49l4.42-14.1a2,2,0,0,1,1.9-1.57,2.34,2.34,0,0,1,2.37,2.13,4,4,0,0,1-.13,1l-5,15.91c-.76,2.38-2.28,3.26-4.14,3.26-2.6,0-3.61-2.31-3.89-3.26l-5-15.91a4.44,4.44,0,0,1-.13-.91,2.31,2.31,0,0,1,2.41-2.24c.85,0,1.48.49,1.83,1.57Z"/><path class="cls-2" d="M536.92,170.52c.16,4.09,2.4,5.81,4.62,5.81a3.77,3.77,0,0,0,3.66-2.48c.44-1,.79-1.76,2.15-1.76a2,2,0,0,1,2.25,2,8,8,0,0,1-8.13,6.3c-6.32,0-9.16-5.36-9.16-11.2,0-6.33,3.16-11.12,8.81-11.12,6.58,0,8.73,6.43,8.73,9.58,0,2.87-2.56,2.87-3.26,2.87Zm7.21-3.57c.44,0,1-.1,1-.84,0-1.36-1.45-4-3.95-4-2.28,0-3.64,1.82-4.18,4.86Z"/><path class="cls-2" d="M569.9,178.08c0,1.4-.6,2.31-2.11,2.31s-2.25-.56-2.25-2.31V166.64c0-.74,0-4.44-3.23-4.44-2.59,0-4.08,2.51-4.08,4.82v11.06a2,2,0,0,1-2.08,2.31c-1.36,0-2.27-.52-2.27-2.31V160.34a2,2,0,0,1,2.11-2.27c1.36,0,2.24.52,2.24,2.27V161a7.28,7.28,0,0,1,5.54-2.94c1.33,0,6.13.49,6.13,7.69Z"/><path class="cls-2" d="M577.25,154.64c0-1.36.6-2.28,2.12-2.28,1.36,0,2.24.53,2.24,2.28v4.16h2.5a1.65,1.65,0,0,1,1.77,1.89c0,1.44-.79,1.89-1.77,1.89h-2.5v11.89c0,1.79,1,2,2.08,2,.86,0,2.25,0,2.25,1.79,0,2.13-2.56,2.17-3.26,2.17-3.85,0-5.43-1.47-5.43-5.25V162.58h-1.83a1.63,1.63,0,0,1-1.81-1.85c0-1.51.85-1.93,1.81-1.93h1.83Z"/><path class="cls-2" d="M594.26,153.42a2.54,2.54,0,1,1-2.53-2.81A2.67,2.67,0,0,1,594.26,153.42Zm-.35,24.66c0,1.4-.56,2.31-2.08,2.31s-2.28-.56-2.28-2.31V160.34a2,2,0,0,1,2.12-2.27c1.26,0,2.24.45,2.24,2.27Z"/><path class="cls-2" d="M616.61,169.23c0,5.77-3,11.16-9.35,11.16s-9.36-5.39-9.36-11.16,2.91-11.16,9.36-11.16S616.61,163.52,616.61,169.23Zm-14.19,0c0,2.9,1.2,7,4.84,7s4.87-4.1,4.87-7-1.14-7-4.87-7S602.42,166.53,602.42,169.23Z"/><path class="cls-2" d="M636.67,178.08c0,1.4-.6,2.31-2.12,2.31-1.36,0-2.24-.56-2.24-2.31V166.64c0-.74,0-4.44-3.23-4.44-2.59,0-4.08,2.51-4.08,4.82v11.06a2,2,0,0,1-2.08,2.31c-1.36,0-2.27-.52-2.27-2.31V160.34a2,2,0,0,1,2.11-2.27c1.36,0,2.24.52,2.24,2.27V161a7.28,7.28,0,0,1,5.54-2.94c1.33,0,6.13.49,6.13,7.69Z"/><path class="cls-2" d="M657.52,153.42a2.54,2.54,0,1,1-2.53-2.81A2.67,2.67,0,0,1,657.52,153.42Zm-.34,24.66c0,1.4-.57,2.31-2.09,2.31s-2.28-.56-2.28-2.31V160.34a2,2,0,0,1,2.12-2.27c1.27,0,2.25.45,2.25,2.27Z"/><path class="cls-2" d="M678.84,178.08c0,1.4-.6,2.31-2.12,2.31-1.36,0-2.25-.56-2.25-2.31V166.64c0-.74,0-4.44-3.22-4.44-2.59,0-4.08,2.51-4.08,4.82v11.06a2,2,0,0,1-2.08,2.31c-1.36,0-2.28-.52-2.28-2.31V160.34a2,2,0,0,1,2.12-2.27c1.35,0,2.24.52,2.24,2.27V161a7.24,7.24,0,0,1,5.53-2.94c1.33,0,6.14.49,6.14,7.69Z"/><path class="cls-2" d="M709.52,163.59a1.82,1.82,0,0,1,2,2.07c0,1.36-.6,2.13-2,2.13h-9.87V178c0,1.26-.5,2.42-2.27,2.42-1.61,0-2.31-.88-2.31-2.42V156.18c0-3.6,1.33-4.83,4.36-4.83h11.64c.82,0,2,.31,2,2.21,0,1.71-1,2.2-2,2.2H701c-.85,0-1.3.52-1.3,1.43v6.4Z"/><path class="cls-2" d="M721.8,169.23c0,1.6,0,6.68,5.85,6.68s5.81-5.14,5.81-6.68V153c0-1.16.44-2.39,2.24-2.39A2.1,2.1,0,0,1,738,153v16.23c0,9.27-5.94,11.16-10.46,11.16-3.82,0-10.37-1.44-10.37-11.16V153a2.3,2.3,0,1,1,4.59,0Z"/><path class="cls-2" d="M759.68,151.46a2.16,2.16,0,0,1,1.58-.85,2.82,2.82,0,0,1,2.41,2.63,2.76,2.76,0,0,1-.73,1.75L755,163.52l9.08,12.77a2.65,2.65,0,0,1,.5,1.51,2.71,2.71,0,0,1-2.5,2.55,1.82,1.82,0,0,1-1.51-.8l-9-12.53-3.35,3.53V178c0,1.26-.5,2.42-2.28,2.42-1.61,0-2.3-.88-2.3-2.42V153a2.1,2.1,0,0,1,2.28-2.39c1.61,0,2.3.88,2.3,2.39v10.56Z"/><path class="cls-2" d="M772.75,169.23c0,1.6,0,6.68,5.85,6.68s5.82-5.14,5.82-6.68V153c0-1.16.44-2.39,2.24-2.39A2.1,2.1,0,0,1,789,153v16.23c0,9.27-5.94,11.16-10.46,11.16-3.83,0-10.37-1.44-10.37-11.16V153a2.29,2.29,0,1,1,4.58,0Z"/><path class="cls-2" d="M818,165.48c0,8.65-4.55,14.91-12.2,14.91s-12.2-6.26-12.2-14.91c0-8.36,4.36-14.87,12.2-14.87C813.89,150.61,818,157.44,818,165.48Zm-19.69,0c0,6.19,2.72,10.43,7.49,10.43,4.58,0,7.53-4,7.53-10.43,0-6.08-2.66-10.42-7.53-10.42C801.15,155.06,798.31,159.12,798.31,165.48Z"/><path class="cls-2" d="M838.76,151.46a2.16,2.16,0,0,1,1.58-.85,2.82,2.82,0,0,1,2.4,2.63A2.71,2.71,0,0,1,842,155l-7.93,8.53,9.07,12.77a2.59,2.59,0,0,1,.51,1.51,2.71,2.71,0,0,1-2.5,2.55,1.85,1.85,0,0,1-1.52-.8L830.7,167l-3.35,3.53V178c0,1.26-.51,2.42-2.28,2.42-1.61,0-2.31-.88-2.31-2.42V153a2.3,2.3,0,1,1,4.59,0v10.56Z"/><path class="cls-2" d="M849.81,178.75c-.25.76-.76,1.64-1.77,1.64s-2.75-.88-2.75-2.2a4.18,4.18,0,0,1,.22-1.16l7.55-23c.92-2.8,2.6-3.4,4.27-3.4,1.27,0,3.32.18,4.36,3.4l7.56,23a3.29,3.29,0,0,1,.19,1.05c0,1.65-1.84,2.31-2.78,2.31-1.11,0-1.59-1.3-1.71-1.64l-1.9-5.71H851.67Zm3.29-10.05h8.53l-3.51-10.63c-.28-.84-.54-.91-.76-.91s-.47.07-.76.91Z"/></svg>