<svg id="Layer_1" data-name="Layer 1" xmlns="http://www.w3.org/2000/svg" viewBox="0 0 789.12 184.32"><defs><style>.cls-1{fill:#231f20;}</style></defs><title>apcc_logo</title><path class="cls-1" d="M445,33.91c6.69,0,15.46,2.81,18.93,9A10.08,10.08,0,0,0,481.46,33c-8-14.21-24.66-19.25-36.5-19.25a42.18,42.18,0,0,0-27.08,9.94c-7.15,6.17-15.66,18.2-15.66,40.44s8.51,34.28,15.66,40.45A42.24,42.24,0,0,0,445,114.53c11.84,0,28.51-5,36.5-19.26a10.08,10.08,0,0,0-17.57-9.88c-3.47,6.17-12.24,9-18.93,9s-22.59-2.94-22.59-30.23S438.17,33.91,445,33.91Z"/><path class="cls-1" d="M567.27,81.55a10.07,10.07,0,0,0-13.72,3.84c-3.47,6.17-12.25,9-18.94,9S512,91.43,512,64.14s15.79-30.23,22.58-30.23,15.47,2.81,18.94,9A10.08,10.08,0,0,0,571.12,33c-8-14.21-24.66-19.25-36.51-19.25a42.18,42.18,0,0,0-27.08,9.94c-7.14,6.17-15.66,18.2-15.66,40.44s8.52,34.28,15.66,40.45a42.24,42.24,0,0,0,27.08,9.94c11.85,0,28.51-5,36.51-19.26A10.08,10.08,0,0,0,567.27,81.55Z"/><path class="cls-1" d="M272.67,19.66a10.08,10.08,0,0,0-18.35,0l-36.68,80.62A10.08,10.08,0,1,0,236,108.62l8.31-18.27h38.39L291,108.62a10.08,10.08,0,0,0,18.35-8.34ZM253.47,70.2l10-22,10,22Z"/><path class="cls-1" d="M360.8,14H333.25a10.07,10.07,0,0,0-10.07,10.08v82.06a10.08,10.08,0,0,0,20.15,0v-26L360.8,80a33,33,0,0,0,0-66.07Zm-.06,45.91-17.41.1V34.12H360.8a12.88,12.88,0,1,1-.06,25.76Z"/><path class="cls-1" d="M15.75,169.23a1.75,1.75,0,0,1-1.6,1.33c-1,0-2.48-.71-2.48-1.79a3.14,3.14,0,0,1,.2-.94l6.81-18.77a3.71,3.71,0,0,1,3.85-2.76,3.72,3.72,0,0,1,3.94,2.76l6.81,18.77a2.25,2.25,0,0,1,.17.85c0,1.34-1.65,1.88-2.5,1.88s-1.43-1.05-1.54-1.33l-1.72-4.65H17.43Zm3-8.19h7.7l-3.16-8.67c-.26-.68-.49-.74-.69-.74s-.43.06-.68.74Z"/><path class="cls-1" d="M49.27,155.05a4.52,4.52,0,0,1,.77,2.2c0,1.05-1,1.48-2,1.48-1.34,0-1.65-.6-1.8-1.09-.42-1.56-1.25-2.13-3.48-2.13-.65,0-3.13,0-3.13,1.82,0,1.37,1.2,1.66,4.7,2.43,3.08.65,6.22,1.48,6.22,5.13s-2.71,5.67-7.5,5.67c-3,0-5-.82-6.22-2a4.88,4.88,0,0,1-1.59-3.22c0-.92.71-1.63,1.94-1.63s1.59.6,2,1.68c.51,1.37,1.6,2,4,2,.77,0,3.45,0,3.45-2,0-1.29-.4-1.4-4.74-2.37-3.62-.83-6.13-1.88-6.13-5.19,0-3,2.23-5.42,7-5.42C45.53,152.37,47.87,152.94,49.27,155.05Z"/><path class="cls-1" d="M58.4,148.58a2.28,2.28,0,0,1-4.56,0,2.28,2.28,0,0,1,4.56,0Zm-.31,20.1a1.66,1.66,0,0,1-1.88,1.88c-1.26,0-2.06-.45-2.06-1.88V154.22a1.68,1.68,0,0,1,1.91-1.85c1.15,0,2,.37,2,1.85Z"/><path class="cls-1" d="M76.49,166.91a6.31,6.31,0,0,0,.14,1.18c0,.16.23.93.23,1.08,0,1.17-1.31,1.39-2,1.39-1.59,0-1.94-.71-2.22-2.31a6.56,6.56,0,0,1-5.39,2.31c-3.62,0-5.53-2.33-5.53-5.27,0-4.36,4-5,6.7-5.36,3.73-.57,4.22-.63,4.22-2.17,0-2.08-2.34-2.22-3.08-2.22-2.17,0-2.94,1.17-3.14,1.62-.51,1.09-.8,1.69-2.14,1.69-.34,0-2-.06-2-1.55s1.45-4.93,7.32-4.93c1.37,0,4.54.23,6,2.34a5.68,5.68,0,0,1,.89,3.25Zm-3.94-5.16a8.9,8.9,0,0,1-3.16.83c-2.17.34-3.62,1-3.62,2.77a2.26,2.26,0,0,0,2.45,2.31c1.74,0,4.33-1.26,4.33-3.77Z"/><path class="cls-1" d="M95.6,168.68a1.68,1.68,0,0,1-1.91,1.88c-1.22,0-2-.45-2-1.88v-9.32c0-.6,0-3.62-2.91-3.62a3.79,3.79,0,0,0-3.68,3.93v9a1.66,1.66,0,0,1-1.88,1.88c-1.23,0-2-.42-2-1.88V154.22a1.68,1.68,0,0,1,1.91-1.85c1.22,0,2,.43,2,1.85v.55a6.74,6.74,0,0,1,5-2.4c1.2,0,5.53.4,5.53,6.27Z"/><path class="cls-1" d="M106,159.56a1.65,1.65,0,0,1,1.85,1.88c0,1.14-.46,1.91-1.85,1.91h-5.14A1.64,1.64,0,0,1,99,161.5c0-1.14.46-1.94,1.85-1.94Z"/><path class="cls-1" d="M115.44,168.6a1.79,1.79,0,0,1-2,2c-1.46,0-2.08-.71-2.08-2V150.83c0-2.93,1.2-3.93,3.93-3.93h5.34c3.1,0,4.22.65,4.7.94a7,7,0,0,1,3.42,6.24,7.23,7.23,0,0,1-3.28,6.33,10.52,10.52,0,0,1-4.84,1h-5.14Zm0-10.75h4.85c3.17,0,4.19-1.83,4.19-3.71,0-1.57-.8-3.65-4.19-3.65h-3.68a1.05,1.05,0,0,0-1.17,1.17Z"/><path class="cls-1" d="M146.22,166.91a5.75,5.75,0,0,0,.15,1.18c0,.16.23.93.23,1.08,0,1.17-1.32,1.39-2,1.39-1.6,0-1.94-.71-2.22-2.31a6.56,6.56,0,0,1-5.39,2.31c-3.62,0-5.54-2.33-5.54-5.27,0-4.36,4-5,6.71-5.36,3.73-.57,4.22-.63,4.22-2.17,0-2.08-2.34-2.22-3.08-2.22-2.17,0-2.94,1.17-3.14,1.62-.51,1.09-.8,1.69-2.14,1.69-.34,0-2-.06-2-1.55s1.46-4.93,7.33-4.93c1.37,0,4.54.23,6,2.34a5.67,5.67,0,0,1,.88,3.25Zm-3.93-5.16a8.9,8.9,0,0,1-3.17.83c-2.16.34-3.62,1-3.62,2.77a2.26,2.26,0,0,0,2.46,2.31c1.73,0,4.33-1.26,4.33-3.77Z"/><path class="cls-1" d="M165.14,158.13c0,1.48-1.59,1.57-2,1.57-1.37,0-1.57-.63-1.86-1.48a3.51,3.51,0,0,0-3.53-2.48c-3.74,0-4.28,3.53-4.28,5.7,0,1.77.4,5.76,4.28,5.76a3.36,3.36,0,0,0,3.56-2.54c.37-1,.6-1.71,2-1.71.31,0,1.91.06,1.91,1.57,0,.51-.8,6-7.53,6-6.47,0-8.3-5-8.3-9.09,0-5.31,2.94-9.1,8.19-9.1C163.4,152.37,165.14,156.71,165.14,158.13Z"/><path class="cls-1" d="M173.08,148.58a2.28,2.28,0,1,1-4.56,0,2.28,2.28,0,1,1,4.56,0Zm-.31,20.1a1.67,1.67,0,0,1-1.89,1.88c-1.25,0-2-.45-2-1.88V154.22a1.68,1.68,0,0,1,1.91-1.85c1.14,0,2,.37,2,1.85Z"/><path class="cls-1" d="M179.67,151.29c0-4.54,3.91-5,5.51-5,.45,0,2,0,2,1.54a1.43,1.43,0,0,1-1.22,1.54c-1.37.25-2.34.39-2.34,1.82V153h2a1.42,1.42,0,0,1,1.59,1.54,1.39,1.39,0,0,1-1.59,1.54h-2v12.63a1.66,1.66,0,0,1-1.88,1.88c-1.17,0-2.06-.39-2.06-1.88V156.05h-1.94c-.74,0-1.62-.26-1.62-1.51a1.42,1.42,0,0,1,1.62-1.57h1.94Z"/><path class="cls-1" d="M194.74,148.58a2.28,2.28,0,0,1-4.56,0,2.28,2.28,0,0,1,4.56,0Zm-.32,20.1a1.66,1.66,0,0,1-1.88,1.88c-1.25,0-2-.45-2-1.88V154.22a1.68,1.68,0,0,1,1.91-1.85c1.14,0,2,.37,2,1.85Z"/><path class="cls-1" d="M213.76,158.13c0,1.48-1.59,1.57-2,1.57-1.37,0-1.57-.63-1.86-1.48a3.51,3.51,0,0,0-3.53-2.48c-3.74,0-4.28,3.53-4.28,5.7,0,1.77.4,5.76,4.28,5.76a3.36,3.36,0,0,0,3.56-2.54c.37-1,.6-1.71,2-1.71.31,0,1.91.06,1.91,1.57,0,.51-.8,6-7.53,6-6.47,0-8.3-5-8.3-9.09,0-5.31,2.94-9.1,8.19-9.1C212,152.37,213.76,156.71,213.76,158.13Z"/><path class="cls-1" d="M246.46,153.26a1.82,1.82,0,0,1-2.05,1.79c-1.46,0-1.66-.65-2-1.71a4.22,4.22,0,0,0-1.31-2.14,6.69,6.69,0,0,0-4.11-1.28c-5.9,0-6.64,6.13-6.64,8.64,0,3.19,1.11,8.35,6.5,8.35,4.56,0,5.33-2.9,5.65-4.1.22-.91.45-1.68,2.05-1.68a1.76,1.76,0,0,1,2,1.76c0,2.06-2.12,7.67-9.59,7.67s-10.86-5.5-10.86-12c0-7.67,4.53-12.23,10.81-12.23C243.86,146.3,246.46,151.14,246.46,153.26Z"/><path class="cls-1" d="M265.21,168.68a1.68,1.68,0,0,1-1.91,1.88c-1.23,0-2-.45-2-1.88v-9.32c0-.6,0-3.62-2.9-3.62a3.79,3.79,0,0,0-3.68,3.93v9a1.66,1.66,0,0,1-1.88,1.88c-1.23,0-2.06-.42-2.06-1.88V148.15a1.68,1.68,0,0,1,1.91-1.85c1.23,0,2,.39,2,1.85v6.62a6.71,6.71,0,0,1,5-2.4c1.2,0,5.53.4,5.53,6.27Z"/><path class="cls-1" d="M274.52,148.58a2.28,2.28,0,1,1-4.56,0,2.28,2.28,0,1,1,4.56,0Zm-.32,20.1a1.66,1.66,0,0,1-1.88,1.88c-1.25,0-2.05-.45-2.05-1.88V154.22a1.68,1.68,0,0,1,1.91-1.85c1.14,0,2,.37,2,1.85Z"/><path class="cls-1" d="M283.19,168.68a1.66,1.66,0,0,1-1.88,1.88c-1.23,0-2.05-.42-2.05-1.88V148.15a1.68,1.68,0,0,1,1.91-1.85c1.22,0,2,.39,2,1.85Z"/><path class="cls-1" d="M299.31,148.15a1.68,1.68,0,0,1,1.91-1.85c1.2,0,2,.39,2,1.85v20.53c0,.83-.23,1.88-1.94,1.88a1.72,1.72,0,0,1-2-1.88v-.8a6,6,0,0,1-5.1,2.68c-4.77,0-7.42-4.25-7.42-9.15,0-5.1,2.63-9,7.3-9a6.24,6.24,0,0,1,5.22,2.45Zm-8.44,13.32c0,.71,0,5.7,4.22,5.7s4.22-5,4.22-5.7,0-5.73-4.22-5.73S290.87,160.7,290.87,161.47Z"/><path class="cls-1" d="M312.3,168.68a1.66,1.66,0,0,1-1.88,1.88c-1.23,0-2.06-.42-2.06-1.88V154.22a1.68,1.68,0,0,1,1.91-1.85c1.2,0,2,.4,2,1.85v1.12a7.13,7.13,0,0,1,5.36-3,1.94,1.94,0,0,1,2,2c0,1.91-1.63,2-2.63,2.13-4,.35-4.7,2.94-4.7,3.91Z"/><path class="cls-1" d="M326.37,162.52c.14,3.34,2.16,4.74,4.16,4.74a3.39,3.39,0,0,0,3.31-2c.4-.83.71-1.43,1.94-1.43,1,0,2,.49,2,1.63,0,.91-1.82,5.13-7.33,5.13-5.7,0-8.27-4.36-8.27-9.12,0-5.16,2.85-9.07,8-9.07,5.93,0,7.87,5.25,7.87,7.81,0,2.34-2.31,2.34-2.94,2.34Zm6.5-2.91c.4,0,.91-.08.91-.68a3.73,3.73,0,0,0-3.56-3.28c-2.06,0-3.28,1.48-3.77,4Z"/><path class="cls-1" d="M356.12,168.68a1.68,1.68,0,0,1-1.91,1.88c-1.23,0-2-.45-2-1.88v-9.32c0-.6,0-3.62-2.91-3.62a3.79,3.79,0,0,0-3.67,3.93v9a1.67,1.67,0,0,1-1.89,1.88c-1.22,0-2-.42-2-1.88V154.22a1.68,1.68,0,0,1,1.91-1.85c1.23,0,2,.43,2,1.85v.55a6.71,6.71,0,0,1,5-2.4c1.19,0,5.53.4,5.53,6.27Z"/><path class="cls-1" d="M362.86,154.45a1,1,0,0,1-1,1,1,1,0,0,1-1-1l-.6-6.61c-.09-.92.57-1.54,1.59-1.54,1.46,0,1.72,1,1.66,1.54Z"/><path class="cls-1" d="M380.06,155.05a4.52,4.52,0,0,1,.77,2.2c0,1.05-1,1.48-2,1.48-1.34,0-1.65-.6-1.79-1.09-.43-1.56-1.26-2.13-3.48-2.13-.66,0-3.14,0-3.14,1.82,0,1.37,1.2,1.66,4.71,2.43,3.08.65,6.21,1.48,6.21,5.13s-2.71,5.67-7.5,5.67c-3.05,0-5-.82-6.21-2a4.86,4.86,0,0,1-1.6-3.22c0-.92.71-1.63,1.94-1.63s1.59.6,2,1.68c.52,1.37,1.6,2,4,2,.77,0,3.45,0,3.45-2,0-1.29-.4-1.4-4.74-2.37-3.62-.83-6.13-1.88-6.13-5.19,0-3,2.23-5.42,7-5.42C376.32,152.37,378.66,152.94,380.06,155.05Z"/><path class="cls-1" d="M414,153.26a1.81,1.81,0,0,1-2.05,1.79c-1.45,0-1.65-.65-2-1.71a4.15,4.15,0,0,0-1.31-2.14,6.66,6.66,0,0,0-4.1-1.28c-5.91,0-6.65,6.13-6.65,8.64,0,3.19,1.11,8.35,6.5,8.35,4.57,0,5.34-2.9,5.65-4.1.23-.91.46-1.68,2.05-1.68a1.76,1.76,0,0,1,2,1.76c0,2.06-2.11,7.67-9.58,7.67s-10.87-5.5-10.87-12c0-7.67,4.54-12.23,10.81-12.23C411.36,146.3,414,151.14,414,153.26Z"/><path class="cls-1" d="M433.65,161.47c0,4.7-2.69,9.09-8.45,9.09s-8.44-4.39-8.44-9.09,2.63-9.1,8.44-9.1S433.65,156.82,433.65,161.47Zm-12.81,0c0,2.36,1.08,5.7,4.36,5.7s4.39-3.34,4.39-5.7-1-5.73-4.39-5.73S420.84,159.27,420.84,161.47Z"/><path class="cls-1" d="M451.74,168.68a1.69,1.69,0,0,1-1.92,1.88c-1.22,0-2-.45-2-1.88v-9.32c0-.6,0-3.62-2.91-3.62a3.79,3.79,0,0,0-3.68,3.93v9a1.66,1.66,0,0,1-1.88,1.88c-1.23,0-2.05-.42-2.05-1.88V154.22a1.68,1.68,0,0,1,1.91-1.85c1.23,0,2,.43,2,1.85v.55a6.74,6.74,0,0,1,5-2.4c1.2,0,5.54.4,5.54,6.27Z"/><path class="cls-1" d="M462.84,165.15c.09.25.2.4.43.4a.49.49,0,0,0,.43-.4l4-11.5a1.74,1.74,0,0,1,1.71-1.28,2,2,0,0,1,2.14,1.74,3.11,3.11,0,0,1-.12.83l-4.53,13a3.8,3.8,0,0,1-7.24,0l-4.54-13a3.47,3.47,0,0,1-.11-.74,2,2,0,0,1,2.16-1.83,1.67,1.67,0,0,1,1.66,1.28Z"/><path class="cls-1" d="M477.48,162.52c.14,3.34,2.17,4.74,4.17,4.74a3.39,3.39,0,0,0,3.31-2c.39-.83.71-1.43,1.93-1.43,1,0,2,.49,2,1.63,0,.91-1.83,5.13-7.33,5.13-5.71,0-8.27-4.36-8.27-9.12,0-5.16,2.85-9.07,7.95-9.07,5.94,0,7.88,5.25,7.88,7.81,0,2.34-2.32,2.34-2.94,2.34Zm6.5-2.91c.4,0,.91-.08.91-.68a3.72,3.72,0,0,0-3.56-3.28c-2.05,0-3.28,1.48-3.76,4Z"/><path class="cls-1" d="M507.23,168.68a1.68,1.68,0,0,1-1.9,1.88c-1.23,0-2-.45-2-1.88v-9.32c0-.6,0-3.62-2.91-3.62a3.79,3.79,0,0,0-3.68,3.93v9a1.66,1.66,0,0,1-1.88,1.88c-1.23,0-2.05-.42-2.05-1.88V154.22a1.68,1.68,0,0,1,1.91-1.85c1.22,0,2,.43,2,1.85v.55a6.74,6.74,0,0,1,5-2.4c1.2,0,5.53.4,5.53,6.27Z"/><path class="cls-1" d="M513.86,149.58a1.68,1.68,0,0,1,1.91-1.86c1.23,0,2,.43,2,1.86V153h2.25a1.42,1.42,0,0,1,1.6,1.54,1.4,1.4,0,0,1-1.6,1.54H517.8v9.69c0,1.46.91,1.6,1.88,1.6.77,0,2,0,2,1.46,0,1.73-2.3,1.76-2.93,1.76-3.48,0-4.91-1.19-4.91-4.27V156.05h-1.65c-.74,0-1.63-.26-1.63-1.51a1.43,1.43,0,0,1,1.63-1.57h1.65Z"/><path class="cls-1" d="M529.21,148.58a2.28,2.28,0,1,1-4.56,0,2.28,2.28,0,0,1,4.56,0Zm-.31,20.1a1.67,1.67,0,0,1-1.89,1.88c-1.25,0-2-.45-2-1.88V154.22a1.68,1.68,0,0,1,1.91-1.85c1.14,0,2,.37,2,1.85Z"/><path class="cls-1" d="M549.38,161.47c0,4.7-2.68,9.09-8.45,9.09s-8.44-4.39-8.44-9.09,2.63-9.1,8.44-9.1S549.38,156.82,549.38,161.47Zm-12.81,0c0,2.36,1.09,5.7,4.36,5.7s4.4-3.34,4.4-5.7-1-5.73-4.4-5.73S536.57,159.27,536.57,161.47Z"/><path class="cls-1" d="M567.47,168.68a1.68,1.68,0,0,1-1.91,1.88c-1.23,0-2-.45-2-1.88v-9.32c0-.6,0-3.62-2.91-3.62a3.79,3.79,0,0,0-3.68,3.93v9a1.66,1.66,0,0,1-1.88,1.88c-1.22,0-2-.42-2-1.88V154.22a1.68,1.68,0,0,1,1.91-1.85c1.23,0,2,.43,2,1.85v.55a6.74,6.74,0,0,1,5-2.4c1.19,0,5.53.4,5.53,6.27Z"/><path class="cls-1" d="M586.28,148.58a2.28,2.28,0,1,1-4.56,0,2.28,2.28,0,1,1,4.56,0Zm-.31,20.1a1.67,1.67,0,0,1-1.89,1.88c-1.25,0-2.05-.45-2.05-1.88V154.22a1.68,1.68,0,0,1,1.91-1.85c1.14,0,2,.37,2,1.85Z"/><path class="cls-1" d="M605.51,168.68a1.68,1.68,0,0,1-1.91,1.88c-1.23,0-2-.45-2-1.88v-9.32c0-.6,0-3.62-2.91-3.62a3.79,3.79,0,0,0-3.68,3.93v9a1.66,1.66,0,0,1-1.88,1.88c-1.23,0-2.05-.42-2.05-1.88V154.22a1.68,1.68,0,0,1,1.91-1.85c1.22,0,2,.43,2,1.85v.55a6.74,6.74,0,0,1,5-2.4c1.2,0,5.54.4,5.54,6.27Z"/><path class="cls-1" d="M633.18,156.88c1.11,0,1.83.48,1.83,1.68s-.54,1.74-1.83,1.74h-8.89v8.3a1.8,1.8,0,0,1-2.06,2c-1.45,0-2.08-.71-2.08-2V150.83c0-2.93,1.2-3.93,3.94-3.93h10.49a1.8,1.8,0,1,1,0,3.59h-9.12a1.05,1.05,0,0,0-1.17,1.17v5.22Z"/><path class="cls-1" d="M644.26,161.47c0,1.31,0,5.44,5.28,5.44s5.24-4.19,5.24-5.44V148.24a1.78,1.78,0,0,1,2-1.94c1.37,0,2.11.62,2.11,1.94v13.23c0,7.55-5.36,9.09-9.44,9.09-3.45,0-9.36-1.17-9.36-9.09V148.24a1.78,1.78,0,0,1,2-1.94c1.34,0,2.11.6,2.11,1.94Z"/><path class="cls-1" d="M678.44,147a2,2,0,0,1,1.43-.68,2.39,2.39,0,0,1,2.16,2.14,2.18,2.18,0,0,1-.65,1.42l-7.16,7,8.18,10.41a2,2,0,0,1,.46,1.22,2.34,2.34,0,0,1-2.26,2.08,1.69,1.69,0,0,1-1.36-.65l-8.07-10.21-3,2.88v6a1.79,1.79,0,0,1-2,2c-1.46,0-2.08-.71-2.08-2V148.24a1.79,1.79,0,0,1,2-1.94c1.46,0,2.08.71,2.08,1.94v8.61Z"/><path class="cls-1" d="M690.23,161.47c0,1.31,0,5.44,5.28,5.44s5.24-4.19,5.24-5.44V148.24a1.78,1.78,0,0,1,2-1.94c1.36,0,2.11.62,2.11,1.94v13.23c0,7.55-5.36,9.09-9.44,9.09-3.45,0-9.36-1.17-9.36-9.09V148.24a1.77,1.77,0,0,1,2-1.94c1.34,0,2.11.6,2.11,1.94Z"/><path class="cls-1" d="M731.05,158.42c0,7-4.11,12.14-11,12.14s-11-5.1-11-12.14c0-6.82,3.93-12.12,11-12.12C727.34,146.3,731.05,151.86,731.05,158.42Zm-17.76,0c0,5,2.45,8.49,6.75,8.49,4.14,0,6.79-3.22,6.79-8.49,0-5-2.39-8.5-6.79-8.5C715.85,149.92,713.29,153.23,713.29,158.42Z"/><path class="cls-1" d="M749.77,147a2.05,2.05,0,0,1,1.43-.68,2.39,2.39,0,0,1,2.16,2.14,2.13,2.13,0,0,1-.65,1.42l-7.16,7,8.19,10.41a2,2,0,0,1,.45,1.22,2.34,2.34,0,0,1-2.25,2.08,1.72,1.72,0,0,1-1.37-.65l-8.07-10.21-3,2.88v6a1.79,1.79,0,0,1-2.05,2c-1.46,0-2.09-.71-2.09-2V148.24a1.79,1.79,0,0,1,2-1.94c1.46,0,2.09.71,2.09,1.94v8.61Z"/><path class="cls-1" d="M759.74,169.23a1.74,1.74,0,0,1-1.6,1.33c-1,0-2.47-.71-2.47-1.79a3,3,0,0,1,.19-.94l6.82-18.77a4.12,4.12,0,0,1,7.78,0l6.82,18.77a2.46,2.46,0,0,1,.17.85c0,1.34-1.66,1.88-2.51,1.88-1,0-1.43-1.05-1.54-1.33l-1.71-4.65H761.42Zm3-8.19h7.7l-3.17-8.67c-.26-.68-.48-.74-.68-.74s-.43.06-.69.74Z"/></svg>