<svg id="Layer_1" data-name="Layer 1" xmlns="http://www.w3.org/2000/svg" viewBox="0 0 1043 393"><defs><style>.cls-1{fill:#f4db0e;}.cls-1,.cls-10,.cls-11,.cls-2,.cls-3,.cls-4,.cls-5,.cls-6,.cls-7,.cls-8,.cls-9{stroke:#fff;stroke-miterlimit:10;}.cls-2{fill:#efa722;}.cls-3{fill:#972777;}.cls-4{fill:#972876;}.cls-5{fill:#0c73b9;}.cls-6{fill:#8dc541;}.cls-7{fill:#119f4b;}.cls-8{fill:#de2128;}.cls-9{fill:#1075b8;}.cls-10{fill:#e9676c;}.cls-11{fill:#13a04b;}</style></defs><title>bcpn_logo</title><path class="cls-1" d="M23.47,267.93c-4.14-7.35-6.64-15.36-8.95-23.37a172.15,172.15,0,0,1-6.66-53.85A175.84,175.84,0,0,1,12,158.48a3.06,3.06,0,0,1,.73-1.56L25.25,152a3.14,3.14,0,0,0,2.34-.68c4.71-1,9.41-2,14.13-3,12.64-2.5,25.5-2.81,38.3-3.74l1.11,0h16.1c4.78,0,9.51,1.16,14.31.7l13.84,1.47c7.09,1.35,14.23,2.47,21.26,4.08A221.65,221.65,0,0,1,234,192.24c7.92,6.16,15.21,13,22.46,19.9l0,0,.34.56c14.28,13.9,23.91,30.94,33.08,48.92-1.33-.95-2.24-1.64-3.19-2.27A77.38,77.38,0,0,0,261.86,248c-8.19-2.88-16.7-4.21-25.24-5.45s-17.38-1.58-26.09-2.11l-.54,0a3.91,3.91,0,0,1-.58.1q-21.63-.22-43.19,1.46c-3.33.27-6.64.65-10,1-5.83.28-11.57,1.32-17.35,2-10.93,1.21-21.78,2.89-32.59,4.9-7.85,1.38-15.75,2.53-23.53,4.21-5.72,1.23-11.58,1.88-17.1,4-1.16.17-2.34.28-3.49.53C49.2,261.28,36.32,264.55,23.47,267.93Z"/><path class="cls-2" d="M346.48,242.56c-1.12,6.56-3.64,12.69-6.11,18.79a152.6,152.6,0,0,1-13.49,26.31A106.42,106.42,0,0,0,322,266.42c-1.55-4.85-2.65-9.9-5.21-14.39a5.71,5.71,0,0,0-.68-2.55,250,250,0,0,0-16.46-33.4,299.32,299.32,0,0,0-47.32-60.65,364.84,364.84,0,0,0-51.13-42.32c-2.3-1.58-4.22-4-7.37-4.12l0,0c.39-1.33-.51-1.17-1.3-1.13-.42-.25-.87-.47-1.26-.75-11.84-8.74-24.35-16.44-38-22C130.24,75.73,105.9,72,81.11,70.77a2.45,2.45,0,0,0-2.89-.08l-1.28-.08-.52-.12-4.25-.08a.47.47,0,0,0-.47,0l-5.52,0a.45.45,0,0,0-.42,0l-2.49-.16c.88-1.54,2.34-2.46,3.66-3.54,5.24-.22,10.49-.25,15.73-.4,13.66-.39,27.29-1.18,40.93-1.9,7.81-.42,15.61.31,23.42,1,12.89,1.11,25.71,2.73,38.4,5.08a265.31,265.31,0,0,1,39,10.29A217.52,217.52,0,0,1,254.8,93.88a143.44,143.44,0,0,1,21.8,14.31,97.42,97.42,0,0,1,16.87,16.66c2.33,3,4.51,6.16,6.75,9.25a5.16,5.16,0,0,0-.66-2.67,158.86,158.86,0,0,0-17.25-27.23c-5-6.36-10.41-12.43-15.8-18.51C259.64,78,251.83,71.24,244.4,64.12c-6-5.73-12.69-10.69-19.18-15.87-6.8-5.42-13.64-10.78-20.79-15.75-3.62-2.51-7.48-4.76-10.61-7.94a170,170,0,0,1,85.55,30.68,174.11,174.11,0,0,1,36.57,34.57A11,11,0,0,0,315,92a132.71,132.71,0,0,0-2.38,20.91,412.93,412.93,0,0,0,.58,41.63,179.1,179.1,0,0,0,2,19.16,158.27,158.27,0,0,0,17.1,47C336.47,228.3,340.88,235.83,346.48,242.56Z"/><path class="cls-3" d="M156.26,242.91c3.32-.33,6.63-.71,10-1q21.56-1.71,43.19-1.46a3.91,3.91,0,0,0,.58-.1l.26.14.28-.1c8.71.53,17.44.86,26.09,2.11s17,2.57,25.24,5.45c-.13,16.36-1.7,32.54-5.86,48.41A225.77,225.77,0,0,1,245.6,327c-4.95,11.92-11.32,23.08-18,34.11-2.75,3.48-7,3.33-10.72,4.15a177,177,0,0,1-23.43,3.24,210,210,0,0,1-25.82.3,94.5,94.5,0,0,1-20.41-2.95c.67-3.18,1.29-6.37,2-9.54,1.88-8.17,3.62-16.36,3.82-24.79.27-4,.62-8,.8-12.05.3-7.19.5-14.39.75-21.59l.21-.16-.19-.17q.24-16.68.47-33.35c1.5-.2,1.15-1.37,1.15-2.28C156.3,255.56,156.27,249.24,156.26,242.91Z"/><path class="cls-4" d="M81.11,70.77c24.79,1.23,49.13,5,72.24,14.38,13.61,5.55,26.12,13.25,38,22,.39.28.84.5,1.26.75a2,2,0,0,0,1.3,1.13l0,0a19.16,19.16,0,0,0,1.73,2A170.56,170.56,0,0,1,217,134.27,229.14,229.14,0,0,1,250.82,194c2.26,5.92,4.78,11.81,5.65,18.18-7.25-6.9-14.54-13.74-22.46-19.9a221.65,221.65,0,0,0-87.37-41.44c-7-1.61-14.17-2.73-21.26-4.08a13.39,13.39,0,0,0-.57-1.65,206.51,206.51,0,0,0-21.34-34.31c-.5-.65-.47-2.25-2-1.78l0,0c.7-.89-.33-1.07-.63-1.55-.55-.8-1.16-1.57-1.65-2.42C93.75,95.71,87.25,87.31,78.36,81c-5-3.56-10.59-5.72-16.25-7.8-.58-.86-1.37-1.73.16-2.44a.94.94,0,0,0,1-.49v0l2.49.16.21.18.21-.19,5.52,0,.47,0,4.25.08.24.16.28,0,1.28.08Z"/><path class="cls-1" d="M193.82,24.56c3.13,3.18,7,5.43,10.61,7.94,7.15,5,14,10.33,20.79,15.75,6.49,5.18,13.21,10.14,19.18,15.87,7.43,7.12,15.24,13.83,22.11,21.57,5.39,6.08,10.77,12.15,15.8,18.51a158.86,158.86,0,0,1,17.25,27.23,5.16,5.16,0,0,1,.66,2.67c-2.24-3.09-4.42-6.23-6.75-9.25a97.42,97.42,0,0,0-16.87-16.66,143.44,143.44,0,0,0-21.8-14.31A217.52,217.52,0,0,0,224.36,80.7a265.31,265.31,0,0,0-39-10.29c-12.69-2.35-25.51-4-38.4-5.08-7.81-.67-15.61-1.4-23.42-1-13.64.72-27.27,1.51-40.93,1.9-5.24.15-10.49.18-15.73.4a148,148,0,0,1,25.3-18.49,171.51,171.51,0,0,1,101.59-23.6Z"/><path class="cls-5" d="M153.1,331.49c-.2,8.43-1.94,16.62-3.82,24.79-.73,3.17-1.35,6.36-2,9.54-20.66-3.66-39.57-11.83-57.39-22.61a174.82,174.82,0,0,1-42.13-36.29,142.39,142.39,0,0,1-24.27-39c12.85-3.38,25.73-6.65,38.73-9.45,1.15-.25,2.33-.36,3.49-.53,2,1.35,3.1,3.54,4.52,5.38a240.26,240.26,0,0,0,36.51,37.57C121,312.87,137.06,322.17,153.1,331.49Z"/><path class="cls-6" d="M227.64,361.08c6.64-11,13-22.19,18-34.11A224.35,224.35,0,0,0,256,296.38c.34-.18.78-.28,1-.56a131.87,131.87,0,0,1,25-25.9c10.5-8.14,21.81-14.68,34.84-17.89,2.56,4.49,3.66,9.54,5.21,14.39a106.42,106.42,0,0,1,4.88,21.24A178.87,178.87,0,0,1,294,326.38c-16.88,15.27-37,24.46-58,32.31C233.36,359.71,230.75,361.35,227.64,361.08Z"/><path class="cls-7" d="M62.11,73.15c5.66,2.08,11.28,4.24,16.25,7.8,8.89,6.36,15.39,14.76,20.81,24.1.49.85,1.1,1.62,1.65,2.42,0,.59-.21,1.29.63,1.55l0,0c4.38,11.81,6.54,24.24,10.12,36.27-4.8.46-9.53-.7-14.31-.7a.63.63,0,0,0-1.1,0h-15c-.4-.44-.77-.41-1.11,0-12.8.93-25.66,1.24-38.3,3.74-4.72.93-9.42,2-14.13,3q-1.32-5.12-2.62-10.24A65.22,65.22,0,0,1,22.59,127c3.07-8.06,7.39-15.47,11.94-22.74a177,177,0,0,1,23.2-29.2A5.24,5.24,0,0,1,62.11,73.15Z"/><path class="cls-8" d="M346.48,242.56c-5.6-6.73-10-14.26-14.16-21.91a158.27,158.27,0,0,1-17.1-47,179.1,179.1,0,0,1-2-19.16,412.93,412.93,0,0,1-.58-41.63A132.71,132.71,0,0,1,315,92a11,11,0,0,1,.95-2.15,170.12,170.12,0,0,1,33.88,73.82,160.36,160.36,0,0,1,2.61,45.76C351.39,220.61,350.16,231.81,346.48,242.56Z"/><path class="cls-9" d="M22.59,127A65.22,65.22,0,0,0,25,141.06c-1.32,3.68.4,7.28.28,10.92l-12.54,4.94c.27-4.86,2.1-9.34,3.55-13.88C18,137.56,19.81,132.07,22.59,127Z"/><path class="cls-10" d="M63.27,70.22a.94.94,0,0,1-1,.49C62.45,70.22,62.88,70.26,63.27,70.22Z"/><path class="cls-11" d="M155.14,264.17A168.13,168.13,0,0,1,107,250.28a4.49,4.49,0,0,1-.67-.5c10.81-2,21.66-3.69,32.59-4.9,5.78-.65,11.52-1.69,17.35-2,0,6.33,0,12.65,0,19C156.29,262.8,156.64,264,155.14,264.17Z"/><path class="cls-11" d="M80,144.6c.34-.46.71-.49,1.11,0Z"/><path class="cls-11" d="M96.13,144.55a.63.63,0,0,1,1.1,0Z"/><path class="cls-4" d="M256.44,212.1c.12.18.23.37.34.56C256.67,212.47,256.56,212.28,256.44,212.1Z"/><path class="cls-2" d="M210.53,240.41l-.28.1-.26-.14Z"/><path class="cls-10" d="M81.11,70.77l-2.89-.08A2.45,2.45,0,0,1,81.11,70.77Z"/><path class="cls-10" d="M76.94,70.61l-.28,0-.24-.16Z"/><path class="cls-10" d="M72.17,70.41l-.47,0A.47.47,0,0,1,72.17,70.41Z"/><path class="cls-10" d="M66.18,70.34l-.21.19-.21-.18A.45.45,0,0,1,66.18,70.34Z"/><path class="cls-10" d="M154.65,297.85a.21.21,0,0,1,0-.33l.19.17Z"/><path d="M893.48,43.55c1.14-.07,2.16-.18,3.17-.18,16.56,0,33.11,0,49.66-.06,2.39,0,3.37.66,4,3.09q21.81,82.56,43.8,165.08a3.59,3.59,0,0,0,1.5,2.28V43.67h39.62V328.6h-5c-12.47,0-24.93-.07-37.4.07-2.44,0-3.39-.72-4-3.06q-25-94.16-50.17-188.27-2.05-7.67-4.1-15.32l-.93.1V328.38H893.48Z"/><path d="M416.92,328.61v-285c1-.1,1.93-.25,2.84-.25,23.88,0,47.77,0,71.65.15a74.49,74.49,0,0,1,27,5.2c16.93,6.72,26.29,19.65,30.13,37.05,2.73,12.39,2.41,25,2.12,37.51-.21,9-1.39,17.91-4.56,26.45A44.88,44.88,0,0,1,523.77,175c-.63.32-1.2.76-2.12,1.34a13,13,0,0,0,1.94,1.27c17.61,7.51,27.12,21.43,29.8,39.78,1.62,11.12,1.59,22.51,2,33.79.34,10.67.07,21.33-2.34,31.84-5.43,23.78-21.5,39.45-45.48,43.62a131.81,131.81,0,0,1-20.9,1.88c-22.2.23-44.42.09-66.63.09ZM461.71,288c9.37,0,18.37.09,27.37,0,11.76-.15,18.94-6.16,20.63-17.77a114.85,114.85,0,0,0,.83-17.21c-.08-10.36.12-20.77-.91-31.05-1.38-13.8-8.72-20.54-22.5-21.58-7.29-.55-14.65-.23-22-.55-2.91-.12-3.66.81-3.65,3.68.11,27.13.06,54.27.07,81.4C461.58,285.82,461.66,286.74,461.71,288Zm.1-203.89v75.07c7.47,0,14.69.25,21.89-.06,11.24-.49,19-6.62,21-17.63a116,116,0,0,0,0-41.47c-1.7-9.53-7.94-15.3-16.62-15.8S470.69,84.12,461.81,84.12Z"/><path d="M740.1,43.59c1-.08,1.94-.22,2.85-.22,23.15,0,46.31-.32,69.45.23,16.43.39,31.56,5.13,43.38,17.49,8.71,9.11,13.35,20.27,15.09,32.49a207.21,207.21,0,0,1,1.68,26.25c.18,13.71.29,27.46-.41,41.14-.79,15.33-4.95,29.73-15.5,41.53-9.07,10.13-20.77,15.7-34,17.2-11.29,1.29-22.76,1-34.15,1.45-1.13,0-2.25,0-3.75,0V328.38H740.1Zm44.77,136.92c8.53,0,16.7.24,24.86-.07,8.4-.31,14.17-4.94,16.48-13a41.52,41.52,0,0,0,1.63-10.79c.17-16.23.11-32.47,0-48.7a43.39,43.39,0,0,0-.77-7.79c-1.69-9-6.72-14.94-15.17-15.7-8.9-.8-17.92-.18-27.07-.18Z"/><path d="M712.23,139.29H670.12V136c0-10.16.12-20.33-.06-30.49-.12-6.7-1.39-13.28-6.18-18.33-7.29-7.68-16.52-8-25.91-5.29-9.12,2.62-12.67,10-14,18.7a69.82,69.82,0,0,0-.64,10.33q-.06,76.06,0,152.13a56.12,56.12,0,0,0,1.12,10.57c2.6,13.57,12.5,18.26,25,17.29,14.92-1.16,20.07-11.19,20.47-23.91.44-13.5.12-27,.13-40.54v-3.66h42c.08,1,.23,1.93.23,2.85-.13,14.77,0,29.54-.52,44.3a72.9,72.9,0,0,1-8.42,31.88c-7.26,13.69-18.56,22.53-33.33,26.75a88,88,0,0,1-47.75.35c-22.55-6.08-35.69-21.39-40.75-43.66a115.48,115.48,0,0,1-2.7-24.88c-.24-49.66-.11-99.32-.12-149,0-12.45,1.54-24.63,6.42-36.2,7-16.75,19.47-27.55,36.93-32.23a87.11,87.11,0,0,1,48.93.64c21,6.47,33.33,21.36,38.22,42.35a145.5,145.5,0,0,1,3,24.22c.49,8.46.11,17,.1,25.45C712.4,136.74,712.3,137.87,712.23,139.29Z"/></svg>