<svg id="Layer_1" data-name="Layer 1" xmlns="http://www.w3.org/2000/svg" viewBox="0 0 890 189"><defs><style>.cls-1{fill:#0070c0;}</style></defs><title>smile _support</title><path d="M444.9,17.69c2.23-2.36,4-4.46,6-6.26,8.87-7.93,21.27-5.63,26.4,5.12,5.42,11.36,1.89,21.64-5,31.05-6.6,9.06-16.08,14.5-25.91,19.34a3.19,3.19,0,0,1-2.49.13c-11.34-5.69-22.13-12.16-28.82-23.49-3.95-6.68-5.79-14-4.11-21.77,1.53-7,5.38-12.48,12.68-14.46,7.54-2.06,13.4,1.2,18.31,6.69C442.89,15.09,443.73,16.24,444.9,17.69ZM450.21,42l.4.5c2.17-1.13,5.71-1.81,6.25-3.47,1.38-4.2-3.47-2.14-5.25-3.58,2.38-4.43,4.65-8.63,7-12.93-4.89-1.73-7.4-.38-9,3.32-1.18,2.63-2.73,5.09-4.5,8.33-2.05-3.57-3.87-6.14-5.06-9-1.69-4-4.45-3.88-8.47-2.72,2.44,4.56,4.7,8.8,7.12,13.31l-5,.57c-.95,4.73-.95,4.73,6.08,5.55-1.29.11-2.67-.19-3.82.2a4.26,4.26,0,0,0-2.6,2.23c-.86,3,.41,4.3,3.61,4.15,2.23-.1,5.42-1.08,5,3.22-.25,2.34.43,3.58,3.17,3.59s3.42-1.29,3.14-3.6c-.33-2.68,1-3.5,3.42-3.27.77.07,1.56,0,2.34,0,2.11.14,3.22-.8,3.2-2.93S456.34,42,453.94,42C452.7,42,451.45,42,450.21,42Z"/><path d="M501,67.68c-3.94,2.61-6.86,4.32-6.32,9.18.46,4.1-3.66,5.3-6.66,6.59a53,53,0,0,1-9.89,3.16c-1.28.28-2.85-.77-4.29-1.22.74-1.14,1.23-2.82,2.28-3.33,2.64-1.26,5.56-2,8.32-3,1.51-.56,2.95-1.33,4.42-2l-.29-1.1c-3.22.61-6.43,1.25-9.66,1.83-2,.37-4.06.56-6.05,1-4.24,1-8.5,1.82-12.64,3.09-3.92,1.19-5.61,4.41-5,8.22.82,5.38,2.23,10.66,3.42,16,.26,1.14,1,2.27.88,3.36s-.85,2.61-1.5,2.7c-1,.15-2.84-.53-3.11-1.29-2.79-8-5.92-15.94-4.65-24.66.84-5.8,5.12-8.76,10.1-10.16,5.66-1.6,11.62-2.13,17.4-3.36,1.6-.33,3.66-1.08,4.44-2.31,4.75-7.55,12-7.95,19.58-7,3.57.43,4.76,3.77,4.09,6.87A39.44,39.44,0,0,1,502,80.33c-1.7,3.18-3.68,6.49-6.35,8.81s-6.45,4-9.93,5.44a35.69,35.69,0,0,1-8.64,2c-2.79.4-3.33,1.47-2.05,3.88,1.16,2.17,3.75,5,.28,6.61-3,1.39-3.53-2.56-5-4.31a3,3,0,0,1-.36-.69c-3.36-7-3.63-8.53,5.41-10.37,4.65-1,9.24-2.27,13.81-3.58a4.74,4.74,0,0,0,2.33-2c2.89-4.46,5.76-9,8.43-13.54C500.59,71.5,500.54,69.88,501,67.68Z"/><path d="M401.2,77.29c2.84,1.06,5.66,2.12,8.5,3.15.49.17,1.13,0,1.52.32,1.87,1.33,6.21.78,4.94,4.53-1.16,3.46-4,1.27-6.18.43-3.49-1.3-7.16-2.16-10.55-3.66-2.88-1.27-4.54-3.44-4-7.13s-3.1-4.71-5.06-6.75l-1,.47c.36,1.56.39,3.31,1.15,4.63,2.47,4.27,4.71,8.84,8,12.37,2.15,2.28,5.92,3.21,9.11,4.29a103.67,103.67,0,0,0,11.94,3.12c2.67.55,3.25,2.28,2.48,4.27a50.63,50.63,0,0,1-4.4,8.65c-.48.77-2.13.81-3.25,1.18-.33-1.27-.75-2.54-.95-3.83-.06-.38.55-.85.8-1.3,2.47-4.39,2.26-4.62-2.65-5.68-4.27-.92-8.49-2.12-12.67-3.4a6,6,0,0,1-3.12-2.18c-3.73-5.75-7.91-11.32-10.72-17.5-2.94-6.46.15-9.79,7.17-10.17s12.07,1.79,15.86,7.63c.69,1.07,2.5,1.69,3.91,2,5.54,1.11,11.19,1.69,16.66,3,8.61,2.14,12.57,7.67,11.33,16.37a123.75,123.75,0,0,1-4.43,17.77c-.32,1.07-2.38,1.61-3.64,2.4-.39-1.35-1.3-2.8-1.06-4,1.17-5.86,2.86-11.61,3.94-17.47.83-4.54-1.25-7.87-5.67-9.44a53.85,53.85,0,0,0-7.74-2.24C415.53,78,409.57,77,403.62,76a9.13,9.13,0,0,0-2.2.15Z"/><path class="cls-1" d="M97.07,130.22c4.3-1.69,8.31-4.1,12.58-4.74,4.84-.72,8.62,2.21,10.73,7.26a42.21,42.21,0,0,1,3.51-2.57c2.65-1.54,5.21-3.48,8.09-4.35,6.19-1.88,12.43,1.36,13.09,7.67,1.1,10.5,1,21.13,1.37,31.91H135.07c0-5,.07-9.88,0-14.72-.07-3.87-.13-7.76-.56-11.59s-2.85-5.37-7-4.81-6.46,2.33-6.35,5.71c.27,7.41,0,14.84.12,22.26,0,2.58-.79,3.44-3.43,3.43-7.5-.05-7.45.06-7.52-7.55-.06-6.09-.12-12.19-.46-18.26-.24-4.18-2.4-5.82-6.59-5.65-4.38.18-6.63,2.31-6.64,6.36,0,7.21-.08,14.41,0,21.61,0,2.48-.64,3.5-3.36,3.49-7.57,0-7.57.08-7.57-7.49,0-9.31.12-18.62-.07-27.92-.07-3.13,1-4.1,4-3.8,2.17.21,4.38,0,6.54,0C96.58,128.14,96.88,129.39,97.07,130.22Z"/><path class="cls-1" d="M36.12,152.38c4.74,1.91,9.26,4.27,14.07,5.49,3.29.83,7,.41,10.46-.13a5.64,5.64,0,0,0,5-5.42c.13-3.07-1.8-5-4.51-5.87-4.31-1.36-8.77-2.26-13.09-3.6-4.93-1.53-9.07-4.11-10.74-9.46-2.55-8.18,1.22-15.87,9.74-19.24,9-3.56,18-2.38,26.94.66a3.2,3.2,0,0,1,1.59,2.38c.21,2.75.08,5.51.08,8.65-2.29-1.24-4.23-2.45-6.3-3.38C64.31,120.18,59,119.33,53.58,121c-2.76.86-4.74,2.59-4.71,5.69s2,4.6,4.62,5.36c4.67,1.34,9.45,2.35,14,3.92,10.37,3.57,13.81,14.5,7.32,23-3.11,4.07-7.52,6.13-12.43,7.07a42.26,42.26,0,0,1-24.09-2.53,4.24,4.24,0,0,1-2.1-3A74.74,74.74,0,0,1,36.12,152.38Z"/><path class="cls-1" d="M266.72,152.58c4.72,1.87,9.06,4.09,13.66,5.25,3.19.8,6.8.48,10.13,0,3-.41,5.41-2.29,5.54-5.69s-2.16-5-4.95-5.89c-4.22-1.29-8.57-2.15-12.78-3.47-5.17-1.63-9.43-4.42-10.8-10.16-2-8.4,1.84-15.46,10.3-18.65,8.83-3.33,17.63-2.19,26.31.7a3.24,3.24,0,0,1,1.78,2.3c.23,2.72.09,5.48.09,8.72-2.27-1.2-4-2.23-5.88-3.1-5.06-2.35-10.3-3.27-15.78-1.7-2.85.82-5.07,2.39-5.11,5.7s2.36,4.84,5.14,5.66c3.7,1.09,7.5,1.87,11.2,2.95,8.92,2.62,12.85,7.1,12.75,14.32-.11,7.56-4.78,13.5-12.8,15.8-9.17,2.62-18.19,1.55-27-1.84a3,3,0,0,1-1.74-2C266.61,158.47,266.72,155.41,266.72,152.58Z"/><path class="cls-1" d="M602.58,165.42H591v-52a18.15,18.15,0,0,1,2.52-.34c7,0,14,0,20.93.18,9.35.26,15,5.1,16.35,13.71s-3.37,16.82-11.61,19.29c-4,1.2-8.47,1.29-12.73,1.4-3,.08-4.13,1-4,4.08C602.74,156.15,602.58,160.58,602.58,165.42Zm0-35.17v1.65c0,8.66,0,8.66,8.7,7.29,5-.78,7.64-4.23,7.46-9.64-.15-4.62-3.08-7.54-8-8-1.43-.13-2.87-.12-4.3-.27-2.73-.27-4.21.59-3.88,3.65A49.28,49.28,0,0,1,602.58,130.25Z"/><path class="cls-1" d="M364.19,126.69h10.49c.21,1.26.4,2.41.67,4a18.85,18.85,0,0,0,2.43-1.22c11.88-8.26,22.21-3.88,24.29,10.62.91,6.38.7,12.86-2.93,18.65-4.51,7.18-12,9.66-19.91,6.56l-4.27-1.7v16.95H364.19ZM375,146.37c0,3.09-.1,6.19.06,9.27a3.58,3.58,0,0,0,1.34,2.62c5.18,2.7,12.53-.29,13.85-6a31.38,31.38,0,0,0,.41-11.39c-1-6.54-6.08-9-12.33-6.61-2.31.87-3.66,2.12-3.38,4.86C375.15,141.49,375,143.94,375,146.37Z"/><path class="cls-1" d="M422.27,163.67v16.91H411.48V126.76h10.36c.23,1.12.49,2.34.8,3.85a17.55,17.55,0,0,0,2.22-1c12.16-8.21,21.77-4.39,24.31,10,1.11,6.26.86,12.63-2.36,18.43-4.27,7.7-12.3,10.49-20.48,7.23C425.15,164.75,424,164.31,422.27,163.67Zm-.09-17.09c0,3-.09,6,.06,8.94a3.78,3.78,0,0,0,1.23,2.71c3.62,2.14,10.11.54,12.58-2.91,3-4.17,3.28-14,.53-18.41-1.92-3.08-5.76-4.13-10-3.07-3.72.92-4.85,3.19-4.42,6.78A51.48,51.48,0,0,1,422.18,146.58Z"/><path class="cls-1" d="M669,147.12c.06-9.16,2.25-16.46,10.54-19.94,8.13-3.4,16.31-3.22,23.47,2.56,6.38,5.14,8.42,16.49,5.06,25.51-2.74,7.37-9,11.45-18,11.64C676.67,167.18,669.11,159.78,669,147.12Zm10.83-1.2a75.56,75.56,0,0,0,1.62,8,7.71,7.71,0,0,0,7.63,5.76A8,8,0,0,0,697,154.3a24.36,24.36,0,0,0-.28-16.85c-1.25-3.38-4-5-7.5-5s-6.32,1.6-7.48,5A75.74,75.74,0,0,0,679.85,145.92Z"/><path class="cls-1" d="M455.51,147.8c.07-9.9,2.31-17.19,10.59-20.64,8.13-3.38,16.32-3.19,23.47,2.61,6.28,5.1,8.32,16.15,5.11,25.22-2.66,7.52-9,11.71-18.1,11.9C463.14,167.17,455.56,159.71,455.51,147.8ZM466.38,146a74.78,74.78,0,0,0,1.46,7.72,7.89,7.89,0,0,0,7.81,6,8,8,0,0,0,8-5.78,24.55,24.55,0,0,0-.27-16.25,7.61,7.61,0,0,0-7.68-5.25c-3.64.13-6.44,1.8-7.56,5.36A83.38,83.38,0,0,0,466.38,146Z"/><path class="cls-1" d="M237.89,147.56H214c-4,0-4.45.63-3.2,4.47,1.32,4,4.91,6.63,9.5,7.12a24.81,24.81,0,0,0,17.07-4.36c0,3.12.11,5.68-.09,8.22-.05.58-1.13,1.29-1.87,1.55-8,2.84-16,3.29-24.05.52-8.26-2.84-11.83-9.29-12.17-17.59-.3-7.66,1.62-14.75,8.58-19,7.15-4.36,14.92-4.66,22.54-1.08,4.84,2.27,6.8,6.82,7.55,11.8C238.21,141.79,237.89,144.47,237.89,147.56Zm-19.28-5.76c2.1,0,4.19,0,6.29,0s2.61-.77,2.27-2.86c-.84-5.08-3.46-7.52-8.41-7.37a8.39,8.39,0,0,0-8.42,8.06c0,.69,1.22,1.94,2,2.05A45.15,45.15,0,0,0,218.61,141.8Z"/><path class="cls-1" d="M780.35,155.14c0,2.73.11,5-.07,7.31a2.65,2.65,0,0,1-1.46,1.86c-9.64,3.47-19.25,4-28.49-1.17a15.05,15.05,0,0,1-7.51-10.84c-2-10.93.73-20.69,10-25a24.07,24.07,0,0,1,18.11-.91c6.13,2,9,6.79,9.82,13,.34,2.58.4,5.2.6,8.17H753.88c-1.43,5.9,2.83,11.2,9.29,11.55C768.44,159.36,769.49,160.45,780.35,155.14ZM761.48,141.8c2.09,0,4.18-.06,6.27,0,2.34.09,2.81-1,2.45-3.11-.76-4.43-3.26-6.91-7.35-7.13-4.69-.24-8.17,2.13-9.27,6.3-.89,3.35-.49,3.89,2.94,3.92C758.17,141.82,759.82,141.81,761.48,141.8Z"/><path class="cls-1" d="M341.41,126.71h10.74v38.67H341.72c-.22-1.26-.44-2.49-.75-4.28-1.31.82-2.26,1.49-3.27,2-2.13,1.14-4.18,2.6-6.47,3.26-8,2.28-14.74-2.4-15.11-10.67-.4-8.85-.24-17.72-.38-26.58,0-2,.8-2.61,2.78-2.67,8.12-.24,8.07-.3,8.14,7.89,0,5.76.22,11.52.44,17.27.11,2.85,1.2,5.21,4.21,6.09,2.81.83,8.4-.51,9.58-2.46a6.5,6.5,0,0,0,.5-3.18C341.43,143.77,341.41,135.46,341.41,126.71Z"/><path class="cls-1" d="M560.45,158.74c1.33,6.59,1,7.21-5.27,7.6a45.83,45.83,0,0,1-8.28-.23c-5.9-.72-9-4.5-9.22-11.45-.2-5.53-.19-11.08,0-16.62.08-3.09-.18-5.43-4.51-4.34V127c4.46-1.15,4.46-1.15,4.46-6v-6.2h11c0,2.82.14,5.57,0,8.29s1,3.56,3.5,3.39c2.09-.15,4.21.08,6.31-.05,2.87-.18,2.54,1.79,2.52,3.54s.46,3.74-2.48,3.54c-2.32-.15-4.66.05-7,0-1.89-.07-2.89.47-2.86,2.59.09,5.54-.07,11.08.09,16.62.13,4.52,2.46,6.62,7,6.57A47.48,47.48,0,0,0,560.45,158.74Z"/><path class="cls-1" d="M825.69,133.5v-6.43c4.56-1.27,4.56-1.27,4.56-6.3v-5.9h11c0,3,.07,5.95,0,8.91-.06,2,.81,2.81,2.77,2.74s3.77,0,5.65,0c3.51,0,5.35,3,3.63,6.08a3,3,0,0,1-2.18.91,64.83,64.83,0,0,1-7,0c-2.18-.12-2.95.74-2.91,2.89.1,5.09,0,10.19,0,15.29.07,5.78,2.59,8,8.32,7.53,1.09-.09,2.17-.33,3.25-.5,2.07,5.48,1.07,7.24-4.63,7.57a44.17,44.17,0,0,1-9.27-.28c-5.55-.87-8.36-4.63-8.61-11.31-.19-5.42-.21-10.86,0-16.28C830.42,135.12,830.19,132.58,825.69,133.5Z"/><path class="cls-1" d="M710.71,180.53v-7.31a17,17,0,0,1,2.17,0c6.85,1,9.8-1,10.06-7.82.38-9.84.18-19.7,0-29.55,0-.79-1.38-2-2.33-2.23-1.32-.38-2.84-.09-4.6-.09v-6.79h18.07v4.34c0,11.52,0,23,0,34.55,0,11.24-6.47,16.91-17.64,15.58Z"/><path class="cls-1" d="M821.27,155c0,2.54.15,4.95-.08,7.32a3.32,3.32,0,0,1-1.66,2.35c-8,3.23-16.08,3.12-23.7-.94-7-3.73-9.13-10.36-9.07-17.92.12-16.77,13.15-21.4,25-20.39a5.08,5.08,0,0,1,.65.15c10.81,2.42,8.89,1.34,8.65,11.78-6.88-4.38-13.95-8.17-20.56-.23-3.9,4.69-3.35,14.41.39,18.69C805.06,160.62,811,160.43,821.27,155Z"/><path class="cls-1" d="M191.11,138.42c0,7.85-.08,15.7,0,23.55,0,2.59-.55,3.75-3.47,3.71-7.47-.08-7.47,0-7.47-7.56,0-14.6.09-29.2-.06-43.79,0-3.07.91-3.93,3.92-3.85,7,.18,7,0,7,7Z"/><path class="cls-1" d="M650.32,165.4H639.58V126.76h10.58c.11,1.74.22,3.35.38,5.61,4.77-2.34,8.32-7,14.27-5.65v9l-11.58,1.77c-2.25.35-3,1.62-3,3.92C650.4,149.26,650.32,157.1,650.32,165.4Z"/><path class="cls-1" d="M505.17,126.7h10.59c.14,1.78.28,3.47.46,5.73,4.72-2.47,8.25-6.92,14.18-5.76v9.1c-3.83.56-7.61,1.11-11.38,1.68-2.38.36-3.16,1.69-3.11,4.14.15,7.83.05,15.66.05,23.76H505.17Z"/><path class="cls-1" d="M168.49,146.37c0,5.41-.07,10.83,0,16.24,0,2.29-.8,3-3.09,3-7.83.11-7.83.19-7.83-7.5,0-9.5.07-19,0-28.51,0-2.46.74-3.2,3.22-3.2,7.72,0,7.72-.08,7.72,7.66Z"/><path class="cls-1" d="M156.76,110.65H169c-.26,2.65,0,7-.87,7.3a18.38,18.38,0,0,1-10,.11C157.11,117.76,157.23,113.49,156.76,110.65Z"/><path class="cls-1" d="M722,110.73h12.47c-.42,2.74-.28,7-1.29,7.32a19,19,0,0,1-10-.07C722.21,117.71,722.39,113.5,722,110.73Z"/></svg>