<svg id="Layer_1" data-name="Layer 1" xmlns="http://www.w3.org/2000/svg" viewBox="0 0 1080 410">
    <title>BCIO_LOGO</title>
    <path fill="#FFFFFF"
        d="M16.24,303.52v-4.86Q28.48,298,36,295.18a35.74,35.74,0,0,0,13.2-8.77,34.09,34.09,0,0,0,9.08-17.1Q60.59,259,60.59,237.2V81.55q0-21.75-2.33-32.1a34.16,34.16,0,0,0-9.08-17.11,33.54,33.54,0,0,0-13.3-8.87q-7.61-2.74-19.64-3.38V15.23H155q21.12,0,27.67.42,24.08,1.91,39.92,11.41a58.84,58.84,0,0,1,21.23,22.17,63.41,63.41,0,0,1,7.49,30.84q0,27.68-17.1,45.41a56.94,56.94,0,0,1-13.94,10.88q-7.81,4.32-22.6,9.6,20.26,3.39,31.47,7.4a71.14,71.14,0,0,1,20.27,11.19,74.9,74.9,0,0,1,21,27.35,84.06,84.06,0,0,1,7.49,35.38,79.83,79.83,0,0,1-7.7,35.16,66,66,0,0,1-21.44,25.66q-12.47,8.67-29.68,12t-48.47,3.38Zm90.6-281.74V147.23H124a191.12,191.12,0,0,0,24.92-1.69,108.14,108.14,0,0,0,18.06-4,48.92,48.92,0,0,0,12.56-6.34,52.85,52.85,0,0,0,16.58-20.59,65.39,65.39,0,0,0,5.81-27.77,78.55,78.55,0,0,0-6-30.52q-6-14.46-15.94-22.49a48.22,48.22,0,0,0-19.75-9.51q-11.08-2.53-33.69-2.53Zm0,132v87q0,15.84,2.22,25.56a43.13,43.13,0,0,0,7.28,16.47q10.78,14.16,37,14.15,34,0,53.75-18.58T226.8,227.7a93.29,93.29,0,0,0-6.12-34.11q-6.13-15.74-16.48-24.18-19-15.63-59.55-15.63Z" />
    <path fill="#FFFFFF"
        d="M567.05,13.75l2.53,94.41h-4.85q-2.33-6.12-3.59-9.29-7.39-20.28-12-30.2a106.47,106.47,0,0,0-23.87-32.53Q513.4,25,500.73,19.88a76.18,76.18,0,0,0-28.51-5.07q-23.87,0-41.4,10.35Q415.4,34.24,402.1,51.24A151.37,151.37,0,0,0,380.35,90q-12,30.61-12,69.69,0,33.17,8.24,59.77T400.62,264q29.14,33.38,77.3,33.37,24.07,0,43.3-8.35T551,265.51Q563.24,248,568.74,218.2l4.86.84q-4,33.38-18.17,53-13.51,18.81-37.27,28.73t-55,9.92A179.15,179.15,0,0,1,407.38,302q-42.45-13.94-66.32-50.37T317.2,164.76q0-38.64,13.94-71.28T370,41q19.22-15.21,45.93-24.19a167.31,167.31,0,0,1,53.54-9q25.56,0,54.07,9.71l17.32,5.71a26,26,0,0,0,8.87,1.9,10.42,10.42,0,0,0,8.66-4.44,43.24,43.24,0,0,0,3.59-7Z" />
    <path fill="#FFFFFF"
        d="M731.79,15.23v4.86q-12,.63-19.54,3.38a35.46,35.46,0,0,0-13.41,8.87q-8.24,8.44-10.14,23.44a232.87,232.87,0,0,0-1.27,25.77V237.2q0,17.53,1.7,27.67t5.49,16.26a34.06,34.06,0,0,0,14.15,12.57q8.65,4.13,23,5v4.86h-135v-4.86q12.24-.63,19.75-3.48a35.83,35.83,0,0,0,13.2-8.77,34.16,34.16,0,0,0,9.08-17.1q2.32-10.35,2.32-32.11V81.55q0-21.75-2.32-32.1a34.24,34.24,0,0,0-9.08-17.11,33.58,33.58,0,0,0-13.31-8.87q-7.61-2.74-19.64-3.38V15.23Z" />
    <path fill="#FFFFFF"
        d="M762.41,161.28a144.81,144.81,0,0,1,15.21-65.84Q792.82,65.13,822,42.5a171.36,171.36,0,0,1,46.89-25.68,149.83,149.83,0,0,1,50.68-9A146.57,146.57,0,0,1,982.48,22.1a161.63,161.63,0,0,1,53.23,40.27q37.17,42.27,37.17,96.16a143.52,143.52,0,0,1-9.72,52.2,148.3,148.3,0,0,1-28.3,45.87,159.21,159.21,0,0,1-54,39.94,156.93,156.93,0,0,1-129.36.42,153.08,153.08,0,0,1-52.8-38.88,140.68,140.68,0,0,1-26.93-44.7A147,147,0,0,1,762.41,161.28Zm51.11,3.17q0,61.29,33.37,103.35,15,18.81,31.79,27.37t38.75,8.56q22.19,0,39-8.45t32-27.48q33.36-42.27,33.37-104.2a221,221,0,0,0-9.19-64.35q-9.18-30.33-25.87-51.47-13.51-17.33-30.1-25.26T917.43,14.6q-22.38,0-38.75,7.82T848.37,47.78Q831.69,68.71,822.6,99.14A227.52,227.52,0,0,0,813.52,164.45Z" />
    <path fill="#FFFFFF"
        d="M27.3,354.63a45.79,45.79,0,0,1,8.59-.76c4.7,0,7.72.81,10,2.65a7.62,7.62,0,0,1,3,6.43c0,3.51-2.32,6.58-6.15,8v.11c3.45.86,7.5,3.72,7.5,9.12a9.83,9.83,0,0,1-3.07,7.29c-2.54,2.32-6.65,3.4-12.59,3.4a54.36,54.36,0,0,1-7.29-.43Zm4.7,14.9h4.27c5,0,7.88-2.59,7.88-6.1,0-4.26-3.24-5.94-8-5.94a19.5,19.5,0,0,0-4.16.33ZM32,387a25.51,25.51,0,0,0,3.94.21c4.86,0,9.35-1.78,9.35-7.07,0-5-4.27-7-9.4-7H32Z" />
    <path fill="#FFFFFF"
        d="M56.57,354.63a48.61,48.61,0,0,1,9-.76c5,0,8.26.92,10.53,3A9.06,9.06,0,0,1,79,363.76,9.54,9.54,0,0,1,72.12,373v.17c2.81,1,4.48,3.56,5.35,7.34,1.19,5.08,2,8.59,2.81,10H75.42c-.6-1-1.41-4.16-2.43-8.69-1.08-5-3-6.92-7.29-7.08H61.27v15.77h-4.7Zm4.7,16.58h4.81c5,0,8.2-2.76,8.2-6.91,0-4.7-3.4-6.75-8.37-6.81a19.66,19.66,0,0,0-4.64.43Z" />
    <path fill="#FFFFFF" d="M90.32,354.14v36.4h-4.7v-36.4Z" />
    <path fill="#FFFFFF"
        d="M98.53,354.63a67.46,67.46,0,0,1,10-.76c6.75,0,11.55,1.57,14.74,4.54s5.13,7.18,5.13,13.07-1.84,10.8-5.24,14.15-9,5.23-16.09,5.23a75.74,75.74,0,0,1-8.53-.43Zm4.7,32.18a29.09,29.09,0,0,0,4.75.27c10,0,15.5-5.61,15.5-15.44,0-8.59-4.81-14-14.75-14a26.53,26.53,0,0,0-5.5.49Z" />
    <path fill="#FFFFFF"
        d="M162.19,388.92a33.72,33.72,0,0,1-11.17,2c-5.51,0-10.05-1.41-13.61-4.81-3.13-3-5.08-7.88-5.08-13.55.06-10.86,7.51-18.79,19.71-18.79a22.42,22.42,0,0,1,9.07,1.67L160,359.27a18.92,18.92,0,0,0-8-1.56c-8.85,0-14.63,5.51-14.63,14.63s5.56,14.69,14,14.69a15.3,15.3,0,0,0,6.26-1V375.2h-7.39v-3.78h12Z" />
    <path fill="#FFFFFF" d="M188.22,373.48H174.07V386.6h15.77v3.94H169.38v-36.4H189v3.95h-15v11.5h14.15Z" />
    <path fill="#FFFFFF"
        d="M232.82,389.35a23.17,23.17,0,0,1-9.61,1.73c-10.26,0-18-6.48-18-18.41,0-11.4,7.72-19.12,19-19.12a19.49,19.49,0,0,1,8.64,1.62L231.74,359a17.16,17.16,0,0,0-7.34-1.51c-8.53,0-14.2,5.46-14.2,15,0,8.91,5.13,14.64,14,14.64a18.92,18.92,0,0,0,7.67-1.51Z" />
    <path fill="#FFFFFF" d="M238.71,354.14h4.7V386.6H259v3.94H238.71Z" />
    <path fill="#FFFFFF"
        d="M267,354.14v21.55c0,8.15,3.62,11.61,8.48,11.61,5.4,0,8.86-3.56,8.86-11.61V354.14H289v21.23c0,11.17-5.89,15.76-13.77,15.76-7.46,0-13.07-4.26-13.07-15.55V354.14Z" />
    <path fill="#FFFFFF"
        d="M297.19,354.63a45.63,45.63,0,0,1,8.59-.76c4.69,0,7.72.81,10,2.65a7.62,7.62,0,0,1,3,6.43c0,3.51-2.32,6.58-6.16,8v.11c3.46.86,7.51,3.72,7.51,9.12a9.8,9.8,0,0,1-3.08,7.29c-2.54,2.32-6.64,3.4-12.58,3.4a54.36,54.36,0,0,1-7.29-.43Zm4.7,14.9h4.26c5,0,7.89-2.59,7.89-6.1,0-4.26-3.24-5.94-8-5.94a19.43,19.43,0,0,0-4.16.33Zm0,17.45a25.51,25.51,0,0,0,3.94.21c4.86,0,9.34-1.78,9.34-7.07,0-5-4.26-7-9.39-7h-3.89Z" />
    <path fill="#FFFFFF" d="M342.6,354.14v36.4h-4.69v-36.4Z" />
    <path fill="#FFFFFF"
        d="M350.81,390.54v-36.4h5.13l11.67,18.42a103.22,103.22,0,0,1,6.53,11.82l.11-.05c-.43-4.86-.54-9.29-.54-15V354.14h4.43v36.4h-4.76l-11.55-18.47A116.17,116.17,0,0,1,355,359.92l-.16.06c.27,4.59.38,9,.38,15v15.55Z" />
    <path fill="#FFFFFF" d="M393.25,358.14H382.18v-4h26.95v4H398v32.4h-4.76Z" />
    <path fill="#FFFFFF" d="M432,373.48H417.88V386.6h15.77v3.94H413.18v-36.4h19.66v3.95h-15v11.5H432Z" />
    <path fill="#FFFFFF"
        d="M439.75,354.63a48.54,48.54,0,0,1,9-.76c5,0,8.26.92,10.53,3a9.1,9.1,0,0,1,2.86,6.92A9.55,9.55,0,0,1,455.3,373v.17c2.81,1,4.48,3.56,5.35,7.34,1.18,5.08,2.05,8.59,2.8,10h-4.86c-.59-1-1.4-4.16-2.43-8.69-1.08-5-3-6.92-7.29-7.08h-4.42v15.77h-4.7Zm4.7,16.58h4.8c5,0,8.21-2.76,8.21-6.91,0-4.7-3.4-6.75-8.37-6.81a19.59,19.59,0,0,0-4.64.43Z" />
    <path fill="#FFFFFF"
        d="M468.8,390.54v-36.4h5.13l11.66,18.42a103.4,103.4,0,0,1,6.54,11.82l.11-.05c-.44-4.86-.54-9.29-.54-15V354.14h4.42v36.4h-4.75l-11.55-18.47A116.17,116.17,0,0,1,473,359.92l-.16.06c.27,4.59.38,9,.38,15v15.55Z" />
    <path fill="#FFFFFF"
        d="M510.22,379.09l-3.78,11.45h-4.86l12.36-36.4h5.67L532,390.54h-5l-3.89-11.45Zm11.93-3.67-3.56-10.48c-.81-2.37-1.35-4.53-1.89-6.64h-.11c-.54,2.16-1.13,4.38-1.84,6.59l-3.56,10.53Z" />
    <path fill="#FFFFFF" d="M540.13,358.14H529.06v-4h27v4H544.88v32.4h-4.75Z" />
    <path fill="#FFFFFF" d="M564.76,354.14v36.4h-4.7v-36.4Z" />
    <path fill="#FFFFFF"
        d="M604.07,372c0,12.53-7.61,19.17-16.9,19.17-9.62,0-16.37-7.45-16.37-18.46,0-11.56,7.19-19.12,16.91-19.12C597.64,353.55,604.07,361.16,604.07,372Zm-28.24.6c0,7.77,4.21,14.74,11.61,14.74s11.66-6.86,11.66-15.12c0-7.24-3.78-14.8-11.61-14.8S575.83,364.57,575.83,372.56Z" />
    <path fill="#FFFFFF"
        d="M610.17,390.54v-36.4h5.13L627,372.56a103.4,103.4,0,0,1,6.54,11.82l.11-.05c-.44-4.86-.54-9.29-.54-15V354.14h4.43v36.4h-4.76l-11.55-18.47a116.17,116.17,0,0,1-6.81-12.15l-.16.06c.27,4.59.38,9,.38,15v15.55Z" />
    <path fill="#FFFFFF"
        d="M651.59,379.09l-3.78,11.45H643l12.36-36.4H661l12.42,36.4h-5l-3.89-11.45Zm11.93-3.67L660,364.94c-.81-2.37-1.35-4.53-1.89-6.64H658c-.54,2.16-1.13,4.38-1.84,6.59l-3.56,10.53Z" />
    <path fill="#FFFFFF" d="M678.75,354.14h4.7V386.6H699v3.94H678.75Z" />
    <path fill="#FFFFFF"
        d="M746.79,372c0,12.53-7.62,19.17-16.9,19.17-9.61,0-16.37-7.45-16.37-18.46,0-11.56,7.19-19.12,16.91-19.12C740.36,353.55,746.79,361.16,746.79,372Zm-28.24.6c0,7.77,4.21,14.74,11.61,14.74s11.66-6.86,11.66-15.12c0-7.24-3.78-14.8-11.61-14.8S718.55,364.57,718.55,372.56Z" />
    <path fill="#FFFFFF"
        d="M752.89,354.63a48.61,48.61,0,0,1,9-.76c5,0,8.26.92,10.53,3a9.1,9.1,0,0,1,2.86,6.92,9.54,9.54,0,0,1-6.86,9.28v.17c2.81,1,4.48,3.56,5.35,7.34,1.19,5.08,2.05,8.59,2.81,10h-4.86c-.6-1-1.41-4.16-2.43-8.69-1.08-5-3-6.92-7.29-7.08h-4.43v15.77h-4.7Zm4.7,16.58h4.8c5,0,8.21-2.76,8.21-6.91,0-4.7-3.4-6.75-8.37-6.81a19.59,19.59,0,0,0-4.64.43Z" />
    <path fill="#FFFFFF"
        d="M809.81,388.92a33.85,33.85,0,0,1-11.18,2c-5.51,0-10-1.41-13.61-4.81-3.13-3-5.08-7.88-5.08-13.55.06-10.86,7.51-18.79,19.71-18.79a22.48,22.48,0,0,1,9.08,1.67l-1.14,3.83a18.9,18.9,0,0,0-8-1.56c-8.86,0-14.64,5.51-14.64,14.63S790.47,387,799,387a15.36,15.36,0,0,0,6.27-1V375.2h-7.4v-3.78h12Z" />
    <path fill="#FFFFFF"
        d="M822.87,379.09l-3.78,11.45h-4.86l12.37-36.4h5.67l12.42,36.4h-5l-3.89-11.45Zm11.94-3.67-3.57-10.48c-.81-2.37-1.35-4.53-1.89-6.64h-.1c-.54,2.16-1.14,4.38-1.84,6.59l-3.56,10.53Z" />
    <path fill="#FFFFFF"
        d="M850,390.54v-36.4h5.13l11.66,18.42a101.7,101.7,0,0,1,6.53,11.82l.11-.05c-.43-4.86-.54-9.29-.54-15V354.14h4.43v36.4h-4.75l-11.56-18.47a114.24,114.24,0,0,1-6.8-12.15l-.16.06c.27,4.59.37,9,.37,15v15.55Z" />
    <path fill="#FFFFFF" d="M890.27,354.14v36.4h-4.7v-36.4Z" />
    <path fill="#FFFFFF" d="M896,387.79l20.2-29.54v-.16H897.72v-3.95h24.57V357L902.2,386.44v.16h20.36v3.94H896Z" />
    <path fill="#FFFFFF"
        d="M934.22,379.09l-3.78,11.45h-4.86L938,354.14h5.67L956,390.54h-5l-3.88-11.45Zm11.93-3.67-3.56-10.48c-.81-2.37-1.35-4.53-1.89-6.64h-.11c-.54,2.16-1.13,4.38-1.83,6.59l-3.57,10.53Z" />
    <path fill="#FFFFFF" d="M964.14,358.14H953.07v-4H980v4H968.89v32.4h-4.75Z" />
    <path fill="#FFFFFF" d="M988.76,354.14v36.4h-4.7v-36.4Z" />
    <path fill="#FFFFFF"
        d="M1028.07,372c0,12.53-7.61,19.17-16.9,19.17-9.61,0-16.36-7.45-16.36-18.46,0-11.56,7.18-19.12,16.9-19.12C1021.65,353.55,1028.07,361.16,1028.07,372Zm-28.24.6c0,7.77,4.21,14.74,11.61,14.74s11.66-6.86,11.66-15.12c0-7.24-3.78-14.8-11.61-14.8S999.83,364.57,999.83,372.56Z" />
    <path fill="#FFFFFF"
        d="M1034.17,390.54v-36.4h5.13L1051,372.56a103.22,103.22,0,0,1,6.53,11.82l.11-.05c-.43-4.86-.54-9.29-.54-15V354.14h4.43v36.4h-4.75l-11.56-18.47a114.24,114.24,0,0,1-6.8-12.15l-.17.06c.27,4.59.38,9,.38,15v15.55Z" />
</svg>